<?xml version="1.0" encoding="UTF-8"?> <!-- Generator: Adobe Illustrator 26.0.1, SVG Export Plug-In . SVG Version: 6.00 Build 0) --> <svg xmlns="http://www.w3.org/2000/svg" xmlns:xlink="http://www.w3.org/1999/xlink" version="1.1" id="Capa_1" x="0px" y="0px" viewBox="0 0 504.54 140.44" style="enable-background:new 0 0 504.54 140.44;" xml:space="preserve"> <style type="text/css"> .st0{fill:#2DC100;} .st1{opacity:0.5;fill:#C8C8C8;} .st2{opacity:0.75;fill:#FFFFFF;} .st3{fill:#FFFFFF;} .st4{opacity:0.9;fill:url(#SVGID_1_);} .st5{opacity:0.5;fill:url(#SVGID_00000150818750723240581810000003301654541656153278_);} .st6{opacity:0.5;fill:url(#SVGID_00000023252151192951053590000014125989021262056576_);} .st7{opacity:0.9;fill:url(#SVGID_00000030470522346412960650000007314045333463890069_);} .st8{opacity:0.5;fill:url(#SVGID_00000134942748837328069930000014332013174996637864_);} .st9{opacity:0.5;fill:url(#SVGID_00000083091214999238692970000004173019003708634784_);} .st10{fill:#FFA257;} .st11{fill:#F2A25C;} .st12{font-family:'Georgia';} .st13{font-size:59.9949px;} </style> <g> <g> <path class="st0" d="M67.32,45.71l9.44,14.13l-1.29,0.9c-0.93-0.86-1.69-1.29-2.29-1.29s-2.27,0.8-5.02,2.39 c-5.7,3.29-10.49,5.5-14.38,6.65c-3.89,1.14-8.52,1.72-13.89,1.72c-10.7,0-19.48-2.53-26.33-7.6c-4.04-2.95-7.22-6.61-9.54-10.98 C1.34,46.62,0,41.11,0,35.08c0-8.21,2.4-15.35,7.2-21.41C14.42,4.55,25.34,0,39.95,0c5.37,0,9.97,0.56,13.81,1.69 c3.84,1.13,8.65,3.35,14.41,6.66c2.75,1.56,4.42,2.33,5.02,2.33s1.36-0.43,2.29-1.29l1.29,0.89l-9.44,14.16l-1.34-0.89 c0.07-0.53,0.1-0.97,0.1-1.34c0-0.96-0.41-1.86-1.24-2.7c-0.83-0.84-2.3-1.86-4.42-3.04c-5.86-3.3-12.07-4.95-18.63-4.95 c-7.75,0-13.93,1.94-18.53,5.81c-5.43,4.53-8.15,10.46-8.15,17.77s2.72,13.24,8.15,17.77c4.6,3.87,10.78,5.81,18.53,5.81 c6.56,0,12.77-1.66,18.63-4.97c2.12-1.19,3.59-2.21,4.42-3.06c0.83-0.84,1.24-1.75,1.24-2.71c0-0.36-0.03-0.79-0.1-1.29 L67.32,45.71z"></path> <path class="st0" d="M117.95,44.59v19.35c0,1.03,0.23,1.82,0.7,2.36c0.46,0.55,1.29,1,2.48,1.37v1.34h-19.68v-1.34 c1.19-0.33,2.02-0.77,2.48-1.32c0.46-0.55,0.7-1.35,0.7-2.41V44.59L88.14,21.9c-1.86-2.55-3.34-4.29-4.45-5.24 c-1.11-0.94-2.43-1.58-3.95-1.91v-1.39h25.07v1.39c-2.16,0.56-3.23,1.57-3.23,3.03c0,0.73,0.78,2.18,2.34,4.37L112,33.35 l7.89-11.19c1.56-2.22,2.34-3.69,2.34-4.42c0-1.39-1.06-2.38-3.18-2.98L119,13.36h23.85v1.39c-1.52,0.33-2.84,0.97-3.95,1.91 c-1.11,0.94-2.59,2.69-4.45,5.24L117.95,44.59z"></path> <path class="st0" d="M176.06,37.36l-10.22,8.25v18.18c0,1.03,0.24,1.81,0.72,2.36c0.48,0.55,1.3,0.97,2.46,1.27v1.59h-21.17v-1.59 c1.19-0.33,2.02-0.76,2.48-1.29c0.46-0.53,0.7-1.31,0.7-2.33V6.36c0-0.99-0.23-1.75-0.7-2.29c-0.46-0.53-1.29-0.96-2.48-1.29V1.19 h21.17v1.59c-1.19,0.3-2.02,0.72-2.48,1.27c-0.46,0.55-0.7,1.32-0.7,2.31V30.1L193.77,7.3c1.29-1.06,1.94-1.9,1.94-2.53 c0-0.96-0.96-1.62-2.88-1.99V1.19h27.72v1.59c-1.16,0.23-1.99,0.5-2.48,0.79c-0.5,0.3-1.94,1.42-4.32,3.38l-3.83,3.18 l-23.06,18.52L213,60.12c2.42,2.92,4.17,4.79,5.24,5.64c1.08,0.84,2.43,1.4,4.05,1.66v1.59h-26.5v-1.59 c1.76-0.36,2.64-0.99,2.64-1.89c0-0.46-0.8-1.69-2.39-3.68L176.06,37.36z"></path> <path class="st0" d="M273.64,55.1h-25.59l-2.88,6.06c-0.7,1.46-1.04,2.6-1.04,3.43c0,1.59,1.06,2.6,3.18,3.03v1.39h-20.44v-1.39 c1.26-0.2,2.19-0.58,2.81-1.14c0.61-0.56,1.33-1.67,2.16-3.33l20.32-41.14c0.76-1.56,1.14-2.91,1.14-4.07 c0-1.36-0.93-2.42-2.78-3.18v-1.39h21.61v1.39c-1.82,0.73-2.73,1.86-2.73,3.38c0,1.09,0.41,2.43,1.24,4.02l21.06,39.9 c1.16,2.17,2.07,3.57,2.73,4.21c0.66,0.64,1.67,1.09,3.03,1.35v1.39h-22.73v-1.39c2.15-0.36,3.23-1.37,3.23-3.02 c0-1.02-0.41-2.29-1.24-3.81L273.64,55.1z M269.63,47.3l-9.11-17.9l-8.67,17.9H269.63z"></path> <path class="st0" d="M305.26,63.94V18.43c0-1.03-0.23-1.81-0.7-2.33c-0.46-0.53-1.29-0.98-2.48-1.34v-1.39h32.64 c6.79,0,12.14,0.84,16.05,2.53c5.5,2.38,9.46,6.33,11.87,11.83c1.69,3.84,2.53,8.33,2.53,13.46c0,9.51-2.83,16.71-8.5,21.61 c-2.55,2.19-5.56,3.77-9.02,4.75c-3.46,0.98-7.78,1.47-12.94,1.47h-32.64v-1.39c1.16-0.3,1.98-0.73,2.46-1.29 S305.26,64.97,305.26,63.94z M318.57,58.93h14.21c6.52,0,11.26-1.49,14.21-4.47c3.08-3.11,4.62-7.54,4.62-13.27 c0-5.73-1.54-10.15-4.62-13.27c-1.52-1.56-3.41-2.69-5.66-3.4c-2.25-0.71-5.1-1.07-8.54-1.07h-14.21V58.93z"></path> <path class="st0" d="M503.5,18.38l-6.71,12.97l-1.19-0.65c0-1.09-0.35-1.95-1.04-2.58c-1.89-1.69-4.67-3.08-8.35-4.17 s-7.4-1.64-11.18-1.64c-3.21,0-6.06,0.45-8.55,1.34c-3.58,1.29-5.37,3.16-5.37,5.61c0,1.62,0.86,2.77,2.58,3.45 c1.72,0.68,5.05,1.22,9.99,1.61l7.85,0.6c6.86,0.53,12.07,1.86,15.65,3.97c1.99,1.19,3.63,2.78,4.92,4.77 c1.62,2.48,2.43,5.28,2.43,8.4c0,5.66-2.55,10.14-7.65,13.42c-4.87,3.15-11.46,4.72-19.77,4.72c-8.38,0-16.48-1.77-24.29-5.32 c-0.53-0.23-0.98-0.35-1.34-0.35c-0.66,0-1.28,0.4-1.84,1.19l-1.24-0.5l5.71-13.61l1.24,0.5c0,0.2,0,0.33,0,0.4 c0,0.86,0.33,1.59,0.99,2.19c1.66,1.46,4.52,2.72,8.6,3.8s8.1,1.61,12.07,1.61c3.51,0,6.66-0.46,9.44-1.39 c3.44-1.13,5.17-2.95,5.17-5.47c0-2.02-1.19-3.43-3.58-4.22c-1.59-0.53-4.46-0.98-8.59-1.34l-7.8-0.65 c-4.21-0.33-7.42-0.76-9.64-1.29c-2.22-0.53-4.16-1.31-5.81-2.33c-2.12-1.33-3.78-3.13-4.97-5.42s-1.79-4.79-1.79-7.5 c0-6.09,2.62-10.75,7.85-13.96c4.77-2.91,10.67-4.37,17.69-4.37c3.81,0,7.36,0.42,10.66,1.27c3.29,0.84,7.23,2.33,11.8,4.45 c1.36,0.63,2.3,0.94,2.83,0.94c0.53,0,1.21-0.36,2.04-1.09L503.5,18.38z"></path> </g> <g> <g> <g> <path class="st1" d="M392.81,15.46c-1.78,1.61-1.3,1.42-2.5,2.14c-1.2,0.72-4.88,4.22-7.03,7.02c-2.15,2.79-3.43,4.65-4.05,5.46 c-6.74,9.63-6.34,11.67-6.23,11.94c-0.09,0.18-0.59,1.24-0.98,2.54c-0.39,1.31-0.74,3.14-0.21,4.43 c-1.09,2.34-0.65,4.83-0.6,5.07c-1.02,2.31-0.74,4.02-0.69,4.27c-0.83,0.86-0.62,2.78-0.59,3.04c-0.45,0.47-1.14,1.79-0.64,3.63 c-0.49,1.04-0.35,2.44,0.33,3.26c0.45,0.55,1.09,0.75,1.78,0.57c2.04,0.68,5.25-1.02,9.07-4.79 c4.09-4.04,8.71-10.34,13.35-18.22c5.63-9.88,8.01-18.74,9.01-24.44c1.09-6.17,0.34-9.66-0.32-10.33 c-0.66-0.67-1.94-1.97-2.71-0.94c-0.77,1.02-1.17,1.88-0.77,2.15c0.4,0.27,0.23,0.17-0.77,0.63 C398.26,12.91,396.09,12.51,392.81,15.46z"></path> <g> <path class="st2" d="M393.04,18.76c-1.6,1.25-3.33,2.43-2.83,1.74c0,0,1.01-1.92,2.34-2.84c1.33-0.92,3.36-2.07,3.66-1.77 C396.5,16.2,394.64,17.51,393.04,18.76z"></path> <path class="st2" d="M392.94,23.6c-3.93,3.95-7.83,6.62-8.95,6.01c-1.12-0.6-1.48-1.77-1.05-2.19c0,0,8.91-4.92,12.51-8.01 C397.82,17.53,396.88,19.65,392.94,23.6z"></path> <path class="st2" d="M381.88,40.27c-1.38,0.4-1.16,0.03-1.48-1.43c-0.32-1.46,2.27-3.23,3.74-5.35 c1.47-2.11,1.47-1.65,4.47-4.15c3-2.5,7.17-7.88,8.2-7.71c1.03,0.17,0.04,3.84-1.82,5.82c-1.87,1.98-3.3,2.56-5.8,5.93 C387.17,36.1,384.03,39.66,381.88,40.27z"></path> <path class="st2" d="M384.89,41.52c0.34-1.72,3.17-4.39,6.14-7.85c2.97-3.46,2.26-0.91,2.08,1.11 c-0.18,2.02-0.71,2.15-2.41,4.49s-3.57,4.59-5.31,6.96c-1.74,2.38-2.37,3.13-2.97,3.13c-0.6,0-0.95-1.63-0.48-2.75 C381.94,46.6,384.54,43.24,384.89,41.52z"></path> <path class="st2" d="M394.64,39.45c0,0-0.48-2.49-0.21-3.48c0.27-0.99,0.92-4.34,1.36-6.42c0.44-2.09,2.25-5.32,3.15-6.54 c0.9-1.22,1.72,0.34,0.11,4.38c-1.61,4.03-2.12,6.12-2.67,8.24C395.84,37.74,394.6,40.41,394.64,39.45z"></path> <path class="st2" d="M388.29,48.1c-3,3.56-5.75,7.59-7.07,7.51c0,0,1.57-2.41,1.91-3.8c0.34-1.39,2.84-3.99,6.28-8.65 c3.44-4.65,3.5-2.86,2.85-0.65C391.63,44.74,391.3,44.54,388.29,48.1z"></path> <path class="st2" d="M379.97,60.41c0,0,3.2-3.63,3.11-4.06c-0.1-0.43,3.01-3.96,5.31-6.76c2.3-2.8,3.07-3.23,1.16,0.24 c-1.91,3.47-3.85,6.44-5.21,7.26c-1.36,0.82-2.16,1.61-3,2.63C380.5,60.75,379.1,61.4,379.97,60.41z"></path> <path class="st2" d="M372.89,68c0,0,3.5-1.66,6.5-4.8c3-3.14,1.42-0.79-0.8,1.28c-2.22,2.06-2.2,1.87-3.07,2.81 C374.65,68.24,372.09,68.71,372.89,68z"></path> <path class="st2" d="M376.14,63.54c1.63-1.15,2.79-0.85,2.02-0.09c0,0-1.27,1.45-3.33,2.3c-2.06,0.85-2.39,1.31-3.16,2.14 c-0.77,0.82-1.46,0.19-1.75-0.71c-0.29-0.9-0.06-1.52,0.87-1.65C371.72,65.4,374.51,64.69,376.14,63.54z"></path> <path class="st2" d="M376.59,59.86c3.2-2.5,4.66-2.76,3.55-1.21c-1.1,1.55-4.51,4.74-7.22,5.49c-3.52,0.97-3.64-1.08-2.41-1.9 C370.51,62.25,373.39,62.36,376.59,59.86z"></path> <path class="st2" d="M376.22,55.68c2.7-2.73,4.6-4.55,5.49-4.44c0.89,0.1-0.18,1.69-1.68,3.83c-1.5,2.15-2.01,2.43-4.7,4.45 c-3.33,2.5-5.97,1.49-3.87-0.59C371.46,58.94,373.52,58.42,376.22,55.68z"></path> <path class="st2" d="M375.64,51.77c2.37-2.94,4.23-4.12,4.52-2.89c0.29,1.23,0.72,1.46-0.65,2.68 c-1.37,1.22-3.63,2.99-5.06,4.41c-1.43,1.42-3.06,2.3-3.09,0.94c-0.03-1.36,0.21-1.99,0.58-2.15 C371.95,54.76,373.27,54.71,375.64,51.77z"></path> <path class="st2" d="M377.14,45.61c2.7-2.8,3.87-3.49,5.33-3.95c1.46-0.46,0.36,1.63-0.75,3.11c-1.1,1.48-1.47,1.45-2.43,2.07 c-0.96,0.62-1.73,1.18-3.73,3.36c-2,2.18-3.53,3.69-3.53,2.7c0.01-0.99,0.08-2.92,0.55-3.44 C372.58,49.47,374.44,48.42,377.14,45.61z"></path> <path class="st2" d="M376.37,41.1c0.83-1.09,2.64-2.93,2.66-1.31c0.02,1.62,0.32,2.06,0.32,2.06s-1.1,1.35-2.97,3.2 c-1.87,1.84-3.63,3.19-3.89,2.26c-0.26-0.93,0.45-3.74,1.19-4.53C373.68,42.78,375.53,42.19,376.37,41.1z"></path> <path class="st2" d="M381.61,29.53c0.69,0.83,1.15,1.37,1.78,1.47c0.63,0.1-0.04,1.29-1.98,3.4c-1.93,2.11-1.87,2.18-3.43,3.53 c-1.57,1.35-3.87,3.69-3.76,2.66c0,0,0.75-2.85,3.55-7.07C380.58,29.3,380.92,28.7,381.61,29.53z"></path> </g> <g> <path class="st3" d="M393.39,21.72c0,0-3.76,3.06-6.69,4.43c-2.92,1.37-1.68,4.23,2.82,0.05 C394.01,22.02,395.55,20.17,393.39,21.72z"></path> <path class="st3" d="M395.1,24.18c0,0-1.57,1.28-3.8,3.56c-2.23,2.27-3.89,2.86-6.73,6.46c-2.84,3.6-1.69,5.29,0.85,2.32 c2.54-2.97,3.87-5.01,7.24-7.88C396.01,25.77,397.86,21.51,395.1,24.18z"></path> <path class="st3" d="M380.41,30.98c0,0-2.47,2.9-3.81,5.68c-1.34,2.78-0.84,2.75,1.62,0.24c2.47-2.5,4.6-5.14,3.64-4.92 C380.9,32.21,381.27,30.13,380.41,30.98z"></path> <path class="st3" d="M377.75,43.03c0,0-3.43,3.53-3.93,3.03c-0.49-0.5-0.49-1.76,0.78-2.41c1.26-0.66,1.73-0.98,2.93-2.57 C378.73,39.49,379.22,41.65,377.75,43.03z"></path> <path class="st3" d="M379.72,46.03c0,0-0.93,0.06-3.6,2.83c-2.67,2.77-4.17,2.64-0.49-1.03 C382.5,40.97,381.82,44.88,379.72,46.03z"></path> <path class="st3" d="M378.57,49.87c0,0-1.56,0.62-3,2.9c-1.44,2.28-3.39,2.17-3.43,3.33c-0.04,1.16,0.89,0.77,2.66-1.04 c1.77-1.81,3.9-3.06,4.63-4.05C380.16,50.01,379.6,49.18,378.57,49.87z"></path> <path class="st3" d="M378.38,54.34c0,0-3,3.16-5.1,4.44c-2.1,1.28-0.34,2.25,3.25-0.84C380.13,54.85,380.75,52,378.38,54.34z"></path> <path class="st3" d="M386.56,43.81c0,0,3.04-3.73,4.51-6.04c1.47-2.31,2.19-5.32-0.85-2.13c-3.03,3.2-3.68,5.41-5.38,8.22 C383.13,46.68,383.46,47.81,386.56,43.81z"></path> <path class="st3" d="M396.63,33.4c0,0,1.08-3.77,2.09-6.22c1.01-2.45,0.08-3.05-1.53,0.59 C395.58,31.41,395.39,36.67,396.63,33.4z"></path> <path class="st3" d="M385.56,50.87c0,0,2.47-3.1,4.44-5.31c1.97-2.21,2.08-4.5-0.82-1.1 C386.27,47.86,381.72,55.45,385.56,50.87z"></path> <path class="st3" d="M385.53,55.37c0,0,1.9-2.54,3.28-4.82c1.37-2.28-0.06-0.8-2.63,2.07 C383.61,55.5,383.03,58.18,385.53,55.37z"></path> <path class="st3" d="M372.17,62.72c0,0,2.66-0.65,5.19-2.75c2.53-2.11,2.46-1.11-0.31,1.49 C374.28,64.06,369.37,64.1,372.17,62.72z"></path> <path class="st3" d="M372.91,65.47c0,0,1.89-0.42,3.72-1.83c1.83-1.41,1.33,0.07-0.9,1.35 C373.5,66.27,370.72,66.12,372.91,65.47z"></path> </g> </g> <g> <path class="st0" d="M392.87,15.46c-1.69,1.7-1.3,1.42-2.5,2.14c-1.2,0.72-4.8,4.28-7.03,7.02c-2.24,2.74-2.14,3.04-1.81,2.64 c0.33-0.4,2.53-2.11,5.94-6.2c3.4-4.09,3.36-2.93,1.83-0.75c-0.88,1.25-1.42,2.08-1.71,2.51c0.59-0.76,2.14-2.64,3.34-4.26 c1.47-1.98,1.86-1.38,4.53-3.02c2.66-1.64,2.25-0.12-0.28,2.05c-6.43,5.5-14.01,9.83-13.01,9.44c5.55-2.78,14-8.44,14.97-9.39 c0.97-0.96,0.73,0.27,0.42,1.16c-0.3,0.89-0.07,0.79,0.72,1.26c0.79,0.47-0.25,2.62-1.79,5.72c-1.54,3.11-2.01,4.43-1.28,3.04 c1.24-1.95,3.86-8.36,4.72-8.09c1.03,0.3,0.74,3.55-0.17,6.23c-0.91,2.68-2.84,9.26-3.68,11.15c-0.84,1.88-2.18,4.59-2.45,4.39 c-0.26-0.2-0.08-2.82-0.15-2.22c-0.07,0.6-0.48,1.92-0.85,3.08c-0.37,1.16-2.54,3.3-1.8,2.57c0.73-0.72,1.73-1.91,2-1.51 s-2.12,4.93-4.22,7.93c-2.11,3-2.74,4.42-4.64,5.64c-2.16,1.41-4.17,4.45-3.6,3.69c1.27-1.45,4-3.75,3.7-3.33 c-0.6,1.32-2.74,3.96-6.11,6.96c-1.67,1.49-2.32,2.28-2.56,2.7c4.33-2.33,10.77-9.21,18.43-22.2c1.68-2.95,3.08-5.82,4.24-8.55 c0.02-0.05,0.04-0.1,0.06-0.14c0.07-0.16,0.14-0.33,0.2-0.49c0.06-0.15,0.12-0.3,0.18-0.44c0.03-0.07,0.06-0.14,0.09-0.21 c1.55-3.83,2.61-7.34,3.34-10.35c0.01-0.05,0.03-0.1,0.04-0.16c0.03-0.14,0.07-0.29,0.1-0.43c0.03-0.15,0.07-0.29,0.1-0.44 c0.01-0.05,0.02-0.1,0.03-0.14c0.58-2.58,0.93-4.85,1.15-6.76c0.41-3.61-0.2-5.95-0.85-6.62c-0.66-0.67-1.94-1.97-2.71-0.94 c-0.77,1.02-1.17,1.88-0.77,2.15c0.4,0.27,0.23,0.17-0.77,0.63C398.26,12.91,395.57,12.73,392.87,15.46z"></path> <g> <path class="st0" d="M371.84,68.2c-0.33,0.33-0.45,0.53-0.46,0.55c-0.02,0.05-0.01,0.1,0.04,0.13c0.05,0.02,0.1,0.01,0.13-0.04 c0.01-0.01,0.58-1.02,3.13-2.33c2.66-1.36,5.53-4.28,5.77-4.78c0.02-0.05,0-0.1-0.04-0.12c-0.05-0.02-0.1,0-0.12,0.04 c-0.23,0.48-3.12,3.38-5.69,4.7C373.11,67.1,372.28,67.76,371.84,68.2z"></path> <path class="st0" d="M369.35,64.96c-0.01,0.01-0.02,0.03-0.02,0.04c-0.01,0.05,0.02,0.1,0.07,0.11 c0.12,0.03,2.92,0.73,8.48-2.93c0.04-0.03,0.06-0.09,0.03-0.13c-0.03-0.04-0.09-0.06-0.13-0.03c-2.86,1.89-4.98,2.58-6.24,2.82 c-1.37,0.27-2.08,0.09-2.08,0.09C369.4,64.92,369.37,64.93,369.35,64.96z"></path> <path class="st0" d="M393.39,36.52c0,0-0.01,0.01-0.01,0.01c-1.55,1.95-3.33,4.3-5.06,6.58c-2.12,2.8-4.13,5.44-5.69,7.35 c-0.02,0.02-0.03,0.05-0.03,0.08c0.04,1.72-1.77,4.17-2.85,5.64c-0.31,0.42-0.55,0.75-0.68,0.97c-0.06,0.1-0.02,0.17,0,0.2 c0.12,0.15,0.44,0.07,1.93-0.43c0.42-0.14,0.81-0.27,1.04-0.33c-0.15,0.51-2.02,2.77-3.81,4.6c-0.48,0.49-0.64,0.8-0.5,1 c0.3,0.44,2.1-0.24,2.85-0.56c0.06-0.03,0.09-0.1,0.07-0.16c-0.03-0.06-0.1-0.09-0.16-0.07c-1.25,0.52-2.44,0.82-2.56,0.65 c0,0-0.08-0.13,0.47-0.7c0.04-0.04,4.19-4.37,3.87-4.94c-0.02-0.04-0.09-0.12-0.24-0.08c-0.24,0.05-0.66,0.2-1.1,0.35 c-0.52,0.18-1.28,0.43-1.58,0.48c0.13-0.21,0.35-0.49,0.6-0.84c1.09-1.48,2.91-3.95,2.9-5.75c1.56-1.91,3.56-4.54,5.67-7.32 c1.66-2.19,3.38-4.45,4.89-6.36c0.08,0.55,0.22,1.88-0.03,3.37c-0.01,0.07,0.03,0.13,0.1,0.14c0.07,0.01,0.13-0.03,0.14-0.1 c0.34-1.99-0.01-3.71-0.01-3.72c-0.01-0.05-0.05-0.08-0.09-0.09C393.46,36.48,393.42,36.49,393.39,36.52z"></path> <path class="st0" d="M392.14,44.32C392.14,44.33,392.14,44.33,392.14,44.32c-0.04,0.05-3.53,3.98-5.84,6.85 c-2.31,2.87-4.32,5.18-4.34,5.21c-0.04,0.05-0.04,0.13,0.01,0.17c0.05,0.04,0.13,0.04,0.17-0.01c0.02-0.02,2.03-2.34,4.34-5.21 c2.31-2.87,5.79-6.79,5.83-6.83c0.04-0.05,0.04-0.13-0.01-0.17C392.26,44.28,392.19,44.28,392.14,44.32z"></path> <path class="st0" d="M369.99,61.34c-0.01,0.01-0.01,0.01-0.02,0.02c-0.02,0.05-0.01,0.1,0.04,0.13 c0.11,0.06,2.78,1.36,9.22-4.21c0.04-0.03,0.04-0.09,0.01-0.13c-0.03-0.04-0.09-0.04-0.13-0.01c-6.34,5.49-8.99,4.2-9.01,4.19 C370.06,61.3,370.02,61.31,369.99,61.34z"></path> <path class="st0" d="M370.58,58.29c-0.01,0.01-0.02,0.03-0.03,0.05c-0.01,0.05,0.03,0.1,0.08,0.11 c0.07,0.01,1.87,0.2,5.33-3.09c3.21-3.05,5.16-4.56,5.4-4.75l1.36,0.01c0.05,0,0.09-0.04,0.09-0.09c0-0.05-0.04-0.09-0.09-0.09 l-1.39-0.01c-0.02,0-0.04,0.01-0.06,0.02c-0.02,0.01-2.01,1.52-5.44,4.78c-3.39,3.23-5.16,3.04-5.18,3.04 C370.63,58.26,370.6,58.27,370.58,58.29z"></path> <path class="st0" d="M371.27,54.01c-0.01,0.01-0.02,0.03-0.02,0.04c-0.01,0.05,0.02,0.1,0.07,0.11 c0.05,0.01,1.14,0.26,3.15-1.86c0.22-0.24,0.46-0.48,0.69-0.74c1.8-1.92,4.04-4.31,5.28-4.4c0.26,0.52,0.35,1.29,0.42,1.98 c0.08,0.79,0.14,1.37,0.45,1.47c0.05,0.02,0.1-0.01,0.12-0.06c0.02-0.05-0.01-0.1-0.06-0.12c-0.19-0.06-0.26-0.7-0.32-1.31 c-0.08-0.73-0.16-1.55-0.47-2.1c-0.02-0.03-0.05-0.05-0.08-0.05c-1.31,0.02-3.52,2.38-5.47,4.46c-0.24,0.25-0.47,0.5-0.69,0.74 c-1.94,2.04-2.96,1.81-2.97,1.81C371.32,53.98,371.29,53.99,371.27,54.01z"></path> <path class="st0" d="M371.87,48.93c-0.04,0.04-0.04,0.1,0,0.13c0.03,0.03,0.09,0.04,0.12,0.01c0.01-0.01,0.03-0.02,0.07-0.03 c1.76-0.8,3.59-2.52,4.83-3.82c2.73-2.88,3.16-3.27,3.22-3.31c0.86-0.39,3.18-1.32,3.69-1.03c0.05,0.03,0.07,0.06,0.08,0.12 c0.34,1.77-3.42,5.96-3.46,6c-0.03,0.04-0.03,0.1,0.01,0.13c0.04,0.03,0.1,0.03,0.13-0.01c0.16-0.17,3.86-4.31,3.51-6.16 c-0.01-0.11-0.07-0.2-0.17-0.25c-0.69-0.4-3.55,0.88-3.88,1.02c-0.03,0.02-0.31,0.23-3.26,3.35c-1.22,1.29-3.04,2.99-4.77,3.77 C371.91,48.9,371.89,48.91,371.87,48.93z"></path> <path class="st0" d="M373.06,41.96c-0.02,0.02-0.03,0.04-0.03,0.07c0,0.05,0.05,0.09,0.1,0.09c0.07,0,1.65-0.07,3.03-1.64 c1.23-1.4,2.84-2.4,3.1-2.56c0.1,0.05,0.44,0.31,0.35,1.48c-0.11,1.5,0.34,2.43,0.36,2.47c0.02,0.05,0.08,0.07,0.13,0.04 c0.05-0.02,0.07-0.08,0.04-0.13c0-0.01-0.45-0.93-0.34-2.37c0.11-1.53-0.47-1.68-0.53-1.69c-0.02,0-0.04,0-0.06,0.01 c-0.02,0.01-1.82,1.08-3.19,2.62c-1.32,1.5-2.88,1.57-2.89,1.57C373.1,41.93,373.08,41.94,373.06,41.96z"></path> <path class="st0" d="M384.11,30.6c-0.01,0.01-0.02,0.02-0.02,0.03c-0.02,0.03-0.02,0.07-0.01,0.1c0.2,0.54-0.37,1.98-1.52,3.25 l-3.4,3.76c-0.05,0.05-0.04,0.13,0.01,0.17c0.05,0.05,0.13,0.04,0.17-0.01l3.4-3.76c1.07-1.18,1.74-2.62,1.6-3.37 c0.62-0.18,3.52-1.17,7.12-4.73c4.03-3.98,5.99-6.45,6.01-6.47c0.04-0.05,0.03-0.13-0.02-0.17c-0.05-0.04-0.13-0.03-0.17,0.02 c-0.02,0.02-1.98,2.48-5.99,6.45c-3.99,3.94-7.1,4.69-7.13,4.7C384.15,30.57,384.13,30.58,384.11,30.6z"></path> <path class="st0" d="M392.6,30.62c-0.79,0.79-1.55,1.68-1.92,2.11c-2.77,3.33-6.81,8.18-6.81,8.18l0.19,0.16 c0,0,4.04-4.85,6.81-8.18c2.52-3.04,3.68-3.61,3.94-3.49c0.09,0.04,0.11,0.21,0.07,0.47c-0.24,1.4-1.52,6.66-1.53,6.71 c-0.02,0.07,0.02,0.13,0.09,0.15c0.07,0.02,0.13-0.02,0.15-0.09c0.01-0.05,1.29-5.32,1.53-6.73c0.07-0.39,0-0.64-0.21-0.73 C394.46,28.97,393.51,29.73,392.6,30.62z"></path> <path class="st0" d="M381.4,27.39C381.4,27.39,381.4,27.39,381.4,27.39l-1.87,2.28c-0.03,0.04-0.03,0.1,0.01,0.13 c0.04,0.03,0.1,0.03,0.13-0.01l1.73-2.12c0.13,0.62,0.7,2.48,2.76,3.1c0.05,0.01,0.1-0.01,0.12-0.06 c0.02-0.05-0.01-0.1-0.06-0.12c-2.36-0.72-2.66-3.13-2.67-3.15c0-0.04-0.03-0.07-0.07-0.08 C381.46,27.36,381.42,27.37,381.4,27.39z"></path> </g> </g> <g> <radialGradient id="SVGID_1_" cx="396.3044" cy="16.1207" r="6.0411" gradientUnits="userSpaceOnUse"> <stop offset="0" style="stop-color:#BD9E6E"></stop> <stop offset="0.2108" style="stop-color:#BC9B6C"></stop> <stop offset="0.3485" style="stop-color:#B79366"></stop> <stop offset="0.4571" style="stop-color:#B0855D"></stop> <stop offset="0.7148" style="stop-color:#AD835C"></stop> <stop offset="0.8833" style="stop-color:#A57D5A"></stop> <stop offset="1" style="stop-color:#997557"></stop> </radialGradient> <path class="st4" d="M400.47,19.81c0,0,0.06-3.88,1.26-6.32c1.21-2.45,0.77-1.82-0.15-2.75c-0.92-0.93-1.59-0.54-2.02,0.42 c-0.44,0.96,0.09,1.09,0.92,0.93c0.83-0.16,0.26,0.4-0.77,1.29c-1.03,0.89-1.26,0.39-2.17,1.94c-0.9,1.55-4.33,4.42-6.76,6.16 c-2.43,1.74,2.52-0.85,6.62-4.43c1.23-1.15,0.99,0.47,0.69,1.56c-0.3,1.09-0.01,1.46,0.72,1.2c0.73-0.26,0.23-0.43,0.89,0.24 C400.36,20.71,400.46,20.47,400.47,19.81z"></path> <radialGradient id="SVGID_00000106109565870648426100000004373992148661217462_" cx="413.1862" cy="1301.7684" r="3.8655" gradientTransform="matrix(0.7113 -0.7029 -0.7029 -0.7113 1019.8689 1234.1053)" gradientUnits="userSpaceOnUse"> <stop offset="0" style="stop-color:#BD9E6E"></stop> <stop offset="0.2108" style="stop-color:#BC9B6C"></stop> <stop offset="0.3485" style="stop-color:#B79366"></stop> <stop offset="0.4571" style="stop-color:#B0855D"></stop> <stop offset="0.7148" style="stop-color:#AD835C"></stop> <stop offset="0.8833" style="stop-color:#A57D5A"></stop> <stop offset="1" style="stop-color:#997557"></stop> </radialGradient> <path style="opacity:0.5;fill:url(#SVGID_00000106109565870648426100000004373992148661217462_);" d="M400.13,19.47 c0,0-0.39-1.9,0.47-4.15c0.85-2.25,0.91-2.66-0.19-1.7c-1.1,0.95-1.49,0.36-2.5,1.81c-1,1.45-2.43,2.67-3.83,3.79 c-1.4,1.12,0.99-0.13,3.5-2.66c1.03-1.02,1.26-0.72,1.06,0.8c-0.21,1.52-0.18,2.35,0.39,1.66 C399.58,18.32,399.94,20.48,400.13,19.47z"></path> <radialGradient id="SVGID_00000052102159125739193530000012735943485816009629_" cx="409.0733" cy="1298.3164" r="9.0028" gradientTransform="matrix(0.7113 -0.7029 -0.7029 -0.7113 1019.8689 1234.1053)" gradientUnits="userSpaceOnUse"> <stop offset="0" style="stop-color:#BD9E6E"></stop> <stop offset="0.2108" style="stop-color:#BC9B6C"></stop> <stop offset="0.3485" style="stop-color:#B79366"></stop> <stop offset="0.4571" style="stop-color:#B0855D"></stop> <stop offset="0.7148" style="stop-color:#AD835C"></stop> <stop offset="0.8833" style="stop-color:#A57D5A"></stop> <stop offset="1" style="stop-color:#997557"></stop> </radialGradient> <path style="opacity:0.5;fill:url(#SVGID_00000052102159125739193530000012735943485816009629_);" d="M399.71,18.45 c0,0-0.16-1.69,0.62-3.44c0.77-1.75-0.59-0.4-1,0.79C398.93,16.99,399.71,19.64,399.71,18.45z"></path> </g> </g> <g> <g> <path class="st1" d="M417.72,15.46c1.78,1.61,1.3,1.42,2.5,2.14c1.2,0.72,4.88,4.22,7.03,7.02c2.15,2.79,3.43,4.65,4.05,5.46 c6.74,9.63,6.34,11.67,6.23,11.94c0.09,0.18,0.59,1.24,0.98,2.54c0.39,1.31,0.74,3.14,0.21,4.43c1.09,2.34,0.65,4.83,0.6,5.07 c1.02,2.31,0.74,4.02,0.69,4.27c0.83,0.86,0.62,2.78,0.59,3.04c0.45,0.47,1.14,1.79,0.64,3.63c0.49,1.04,0.35,2.44-0.33,3.26 c-0.45,0.55-1.09,0.75-1.78,0.57c-2.04,0.68-5.25-1.02-9.07-4.79c-4.09-4.04-8.71-10.34-13.35-18.22 c-5.63-9.88-8.01-18.74-9.01-24.44c-1.09-6.17-0.34-9.66,0.32-10.33c0.66-0.67,1.94-1.97,2.71-0.94 c0.77,1.02,1.17,1.88,0.77,2.15c-0.4,0.27-0.23,0.17,0.77,0.63C412.27,12.91,414.45,12.51,417.72,15.46z"></path> <g> <path class="st2" d="M417.49,18.76c1.6,1.25,3.33,2.43,2.83,1.74c0,0-1.01-1.92-2.34-2.84c-1.33-0.92-3.36-2.07-3.66-1.77 C414.03,16.2,415.9,17.51,417.49,18.76z"></path> <path class="st2" d="M417.59,23.6c3.93,3.95,7.83,6.62,8.95,6.01c1.12-0.6,1.48-1.77,1.05-2.19c0,0-8.91-4.92-12.51-8.01 C412.71,17.53,413.66,19.65,417.59,23.6z"></path> <path class="st2" d="M428.66,40.27c1.38,0.4,1.16,0.03,1.48-1.43c0.32-1.46-2.27-3.23-3.74-5.35 c-1.47-2.11-1.47-1.65-4.47-4.15c-3-2.5-7.17-7.88-8.2-7.71c-1.03,0.17-0.04,3.84,1.82,5.82c1.87,1.98,3.3,2.56,5.8,5.93 C423.36,36.1,426.5,39.66,428.66,40.27z"></path> <path class="st2" d="M425.65,41.52c-0.34-1.72-3.17-4.39-6.14-7.85c-2.97-3.46-2.26-0.91-2.08,1.11 c0.18,2.02,0.71,2.15,2.41,4.49s3.57,4.59,5.31,6.96s2.37,3.13,2.97,3.13c0.6,0,0.95-1.63,0.48-2.75 C428.6,46.6,425.99,43.24,425.65,41.52z"></path> <path class="st2" d="M415.89,39.45c0,0,0.48-2.49,0.21-3.48c-0.27-0.99-0.92-4.34-1.36-6.42c-0.44-2.09-2.25-5.32-3.15-6.54 c-0.9-1.22-1.72,0.34-0.11,4.38c1.61,4.03,2.12,6.12,2.67,8.24C414.69,37.74,415.93,40.41,415.89,39.45z"></path> <path class="st2" d="M422.24,48.1c3,3.56,5.75,7.59,7.07,7.51c0,0-1.57-2.41-1.91-3.8c-0.34-1.39-2.84-3.99-6.28-8.65 c-3.44-4.65-3.5-2.86-2.85-0.65C418.91,44.74,419.24,44.54,422.24,48.1z"></path> <path class="st2" d="M430.57,60.41c0,0-3.2-3.63-3.11-4.06c0.1-0.43-3.01-3.96-5.31-6.76c-2.3-2.8-3.07-3.23-1.16,0.24 c1.91,3.47,3.85,6.44,5.21,7.26c1.36,0.82,2.16,1.61,3,2.63C430.04,60.75,431.43,61.4,430.57,60.41z"></path> <path class="st2" d="M437.65,68c0,0-3.5-1.66-6.5-4.8c-3-3.14-1.42-0.79,0.8,1.28c2.22,2.06,2.2,1.87,3.07,2.81 C435.88,68.24,438.45,68.71,437.65,68z"></path> <path class="st2" d="M434.4,63.54c-1.63-1.15-2.79-0.85-2.02-0.09c0,0,1.27,1.45,3.33,2.3c2.06,0.85,2.39,1.31,3.16,2.14 c0.77,0.82,1.46,0.19,1.75-0.71c0.29-0.9,0.06-1.52-0.87-1.65C438.81,65.4,436.03,64.69,434.4,63.54z"></path> <path class="st2" d="M433.94,59.86c-3.2-2.5-4.66-2.76-3.55-1.21c1.1,1.55,4.51,4.74,7.22,5.49c3.52,0.97,3.64-1.08,2.41-1.9 C440.02,62.25,437.14,62.36,433.94,59.86z"></path> <path class="st2" d="M434.32,55.68c-2.7-2.73-4.6-4.55-5.49-4.44c-0.89,0.1,0.18,1.69,1.68,3.83c1.5,2.15,2.01,2.43,4.7,4.45 c3.33,2.5,5.97,1.49,3.87-0.59C439.08,58.94,437.02,58.42,434.32,55.68z"></path> <path class="st2" d="M434.89,51.77c-2.37-2.94-4.23-4.12-4.52-2.89c-0.29,1.23-0.72,1.46,0.65,2.68 c1.37,1.22,3.63,2.99,5.06,4.41c1.43,1.42,3.06,2.3,3.09,0.94c0.03-1.36-0.21-1.99-0.58-2.15 C438.59,54.76,437.26,54.71,434.89,51.77z"></path> <path class="st2" d="M433.4,45.61c-2.7-2.8-3.87-3.49-5.33-3.95c-1.46-0.46-0.35,1.63,0.75,3.11c1.1,1.48,1.47,1.45,2.43,2.07 c0.96,0.62,1.73,1.18,3.73,3.36c2,2.18,3.53,3.69,3.53,2.7c-0.01-0.99-0.08-2.92-0.55-3.44 C437.96,49.47,436.1,48.42,433.4,45.61z"></path> <path class="st2" d="M434.16,41.1c-0.83-1.09-2.64-2.93-2.66-1.31c-0.02,1.62-0.32,2.06-0.32,2.06s1.1,1.35,2.97,3.2 c1.87,1.84,3.63,3.19,3.89,2.26c0.26-0.93-0.45-3.74-1.19-4.53C436.86,42.78,435,42.19,434.16,41.1z"></path> <path class="st2" d="M428.93,29.53c-0.69,0.83-1.15,1.37-1.78,1.47c-0.63,0.1,0.04,1.29,1.98,3.4 c1.93,2.11,1.87,2.18,3.43,3.53c1.57,1.35,3.87,3.69,3.76,2.66c0,0-0.75-2.85-3.55-7.07C429.95,29.3,429.62,28.7,428.93,29.53z "></path> </g> <g> <path class="st3" d="M417.15,21.72c0,0,3.76,3.06,6.69,4.43c2.92,1.37,1.68,4.23-2.82,0.05 C416.52,22.02,414.98,20.17,417.15,21.72z"></path> <path class="st3" d="M415.44,24.18c0,0,1.57,1.28,3.8,3.56c2.23,2.27,3.89,2.86,6.73,6.46c2.84,3.6,1.69,5.29-0.85,2.32 c-2.54-2.97-3.87-5.01-7.24-7.88C414.52,25.77,412.67,21.51,415.44,24.18z"></path> <path class="st3" d="M430.13,30.98c0,0,2.47,2.9,3.81,5.68c1.34,2.78,0.84,2.75-1.62,0.24c-2.47-2.5-4.6-5.14-3.64-4.92 C429.64,32.21,429.26,30.13,430.13,30.98z"></path> <path class="st3" d="M432.78,43.03c0,0,3.43,3.53,3.93,3.03c0.49-0.5,0.49-1.76-0.78-2.41c-1.26-0.66-1.73-0.98-2.93-2.57 C431.8,39.49,431.32,41.65,432.78,43.03z"></path> <path class="st3" d="M430.81,46.03c0,0,0.93,0.06,3.6,2.83c2.67,2.77,4.17,2.64,0.49-1.03 C428.03,40.97,428.72,44.88,430.81,46.03z"></path> <path class="st3" d="M431.96,49.87c0,0,1.56,0.62,3,2.9c1.44,2.28,3.39,2.17,3.43,3.33c0.04,1.16-0.89,0.77-2.66-1.04 c-1.77-1.81-3.9-3.06-4.63-4.05C430.37,50.01,430.93,49.18,431.96,49.87z"></path> <path class="st3" d="M432.15,54.34c0,0,3,3.16,5.1,4.44c2.1,1.28,0.34,2.25-3.25-0.84C430.4,54.85,429.79,52,432.15,54.34z"></path> <path class="st3" d="M423.97,43.81c0,0-3.04-3.73-4.51-6.04c-1.47-2.31-2.19-5.32,0.85-2.13c3.03,3.2,3.68,5.41,5.38,8.22 C427.4,46.68,427.08,47.81,423.97,43.81z"></path> <path class="st3" d="M413.9,33.4c0,0-1.08-3.77-2.09-6.22c-1.01-2.45-0.08-3.05,1.53,0.59 C414.95,31.41,415.15,36.67,413.9,33.4z"></path> <path class="st3" d="M424.98,50.87c0,0-2.47-3.1-4.44-5.31c-1.97-2.21-2.08-4.5,0.82-1.1 C424.26,47.86,428.81,55.45,424.98,50.87z"></path> <path class="st3" d="M425,55.37c0,0-1.9-2.54-3.28-4.82c-1.37-2.28,0.06-0.8,2.63,2.07C426.92,55.5,427.5,58.18,425,55.37z"></path> <path class="st3" d="M438.37,62.72c0,0-2.66-0.65-5.19-2.75c-2.53-2.11-2.46-1.11,0.31,1.49 C436.25,64.06,441.16,64.1,438.37,62.72z"></path> <path class="st3" d="M437.62,65.47c0,0-1.89-0.42-3.72-1.83c-1.83-1.41-1.33,0.07,0.9,1.35 C437.03,66.27,439.81,66.12,437.62,65.47z"></path> </g> </g> <g> <path class="st0" d="M417.66,15.46c1.69,1.7,1.3,1.42,2.5,2.14c1.2,0.72,4.8,4.28,7.03,7.02c2.24,2.74,2.14,3.04,1.81,2.64 c-0.33-0.4-2.53-2.11-5.94-6.2c-3.4-4.09-3.36-2.93-1.83-0.75c0.88,1.25,1.42,2.08,1.71,2.51c-0.59-0.76-2.14-2.64-3.34-4.26 c-1.47-1.98-1.86-1.38-4.53-3.02c-2.66-1.64-2.25-0.12,0.28,2.05c6.43,5.5,14.01,9.83,13.01,9.44c-5.55-2.78-14-8.44-14.97-9.39 c-0.97-0.96-0.73,0.27-0.42,1.16c0.3,0.89,0.07,0.79-0.72,1.26c-0.79,0.47,0.25,2.62,1.79,5.72c1.54,3.11,2.01,4.43,1.28,3.04 c-1.24-1.95-3.86-8.36-4.72-8.09c-1.03,0.3-0.74,3.55,0.17,6.23c0.91,2.68,2.84,9.26,3.68,11.15c0.84,1.88,2.18,4.59,2.45,4.39 c0.26-0.2,0.08-2.82,0.15-2.22c0.07,0.6,0.48,1.92,0.85,3.08c0.37,1.16,2.54,3.3,1.8,2.57c-0.73-0.72-1.73-1.91-2-1.51 c-0.26,0.4,2.12,4.93,4.22,7.93c2.11,3,2.74,4.42,4.64,5.64c2.16,1.41,4.17,4.45,3.6,3.69c-1.27-1.45-4-3.75-3.7-3.33 c0.6,1.32,2.74,3.96,6.11,6.96c1.67,1.49,2.32,2.28,2.56,2.7c-4.33-2.33-10.77-9.21-18.43-22.2c-1.68-2.95-3.08-5.82-4.24-8.55 c-0.02-0.05-0.04-0.1-0.06-0.14c-0.07-0.16-0.14-0.33-0.2-0.49c-0.06-0.15-0.12-0.3-0.18-0.44c-0.03-0.07-0.06-0.14-0.09-0.21 c-1.55-3.83-2.61-7.34-3.34-10.35c-0.01-0.05-0.03-0.1-0.04-0.16c-0.03-0.14-0.07-0.29-0.1-0.43c-0.03-0.15-0.07-0.29-0.1-0.44 c-0.01-0.05-0.02-0.1-0.03-0.14c-0.58-2.58-0.93-4.85-1.15-6.76c-0.41-3.61,0.2-5.95,0.85-6.62c0.66-0.67,1.94-1.97,2.71-0.94 c0.77,1.02,1.17,1.88,0.77,2.15c-0.4,0.27-0.23,0.17,0.77,0.63C412.27,12.91,414.96,12.73,417.66,15.46z"></path> <g> <path class="st0" d="M438.69,68.2c0.33,0.33,0.45,0.53,0.46,0.55c0.02,0.05,0.01,0.1-0.04,0.13c-0.05,0.02-0.1,0.01-0.13-0.04 c-0.01-0.01-0.58-1.02-3.13-2.33c-2.66-1.36-5.53-4.28-5.77-4.78c-0.02-0.05,0-0.1,0.04-0.12c0.05-0.02,0.1,0,0.12,0.04 c0.23,0.48,3.12,3.38,5.69,4.7C437.43,67.1,438.25,67.76,438.69,68.2z"></path> <path class="st0" d="M441.19,64.96c0.01,0.01,0.02,0.03,0.02,0.04c0.01,0.05-0.02,0.1-0.07,0.11 c-0.12,0.03-2.92,0.73-8.48-2.93c-0.04-0.03-0.06-0.09-0.03-0.13c0.03-0.04,0.09-0.06,0.13-0.03c2.86,1.89,4.98,2.58,6.24,2.82 c1.37,0.27,2.08,0.09,2.08,0.09C441.13,64.92,441.16,64.93,441.19,64.96z"></path> <path class="st0" d="M417.14,36.52c0,0,0.01,0.01,0.01,0.01c1.55,1.95,3.33,4.3,5.06,6.58c2.12,2.8,4.13,5.44,5.69,7.35 c0.02,0.02,0.03,0.05,0.03,0.08c-0.04,1.72,1.77,4.17,2.85,5.64c0.31,0.42,0.55,0.75,0.68,0.97c0.06,0.1,0.02,0.17,0,0.2 c-0.12,0.15-0.44,0.07-1.93-0.43c-0.42-0.14-0.81-0.27-1.04-0.33c0.15,0.51,2.02,2.77,3.81,4.6c0.48,0.49,0.64,0.8,0.5,1 c-0.3,0.44-2.1-0.24-2.85-0.56c-0.06-0.03-0.09-0.1-0.07-0.16c0.03-0.06,0.1-0.09,0.16-0.07c1.25,0.52,2.44,0.82,2.56,0.65 c0,0,0.08-0.13-0.47-0.7c-0.04-0.04-4.19-4.37-3.87-4.94c0.02-0.04,0.09-0.12,0.24-0.08c0.24,0.05,0.66,0.2,1.1,0.35 c0.52,0.18,1.28,0.43,1.58,0.48c-0.13-0.21-0.35-0.49-0.6-0.84c-1.09-1.48-2.91-3.95-2.9-5.75c-1.56-1.91-3.56-4.54-5.67-7.32 c-1.66-2.19-3.38-4.45-4.89-6.36c-0.08,0.55-0.22,1.88,0.03,3.37c0.01,0.07-0.03,0.13-0.1,0.14c-0.07,0.01-0.13-0.03-0.14-0.1 c-0.34-1.99,0.01-3.71,0.01-3.72c0.01-0.05,0.05-0.08,0.09-0.09C417.07,36.48,417.11,36.49,417.14,36.52z"></path> <path class="st0" d="M418.39,44.32C418.4,44.33,418.4,44.33,418.39,44.32c0.04,0.05,3.53,3.98,5.84,6.85 c2.31,2.87,4.32,5.18,4.34,5.21c0.04,0.05,0.04,0.13-0.01,0.17c-0.05,0.04-0.13,0.04-0.17-0.01c-0.02-0.02-2.03-2.34-4.34-5.21 c-2.31-2.87-5.79-6.79-5.83-6.83c-0.04-0.05-0.04-0.13,0.01-0.17C418.28,44.28,418.35,44.28,418.39,44.32z"></path> <path class="st0" d="M440.55,61.34c0.01,0.01,0.01,0.01,0.02,0.02c0.02,0.05,0.01,0.1-0.04,0.13 c-0.11,0.06-2.78,1.36-9.22-4.21c-0.04-0.03-0.04-0.09-0.01-0.13c0.03-0.04,0.09-0.04,0.13-0.01c6.34,5.49,8.99,4.2,9.01,4.19 C440.47,61.3,440.52,61.31,440.55,61.34z"></path> <path class="st0" d="M439.96,58.29c0.01,0.01,0.02,0.03,0.03,0.05c0.01,0.05-0.03,0.1-0.08,0.11c-0.07,0.01-1.87,0.2-5.33-3.09 c-3.21-3.05-5.16-4.56-5.4-4.75l-1.36,0.01c-0.05,0-0.09-0.04-0.09-0.09c0-0.05,0.04-0.09,0.09-0.09l1.39-0.01 c0.02,0,0.04,0.01,0.06,0.02c0.02,0.01,2.01,1.52,5.44,4.78c3.39,3.23,5.16,3.04,5.18,3.04 C439.91,58.26,439.94,58.27,439.96,58.29z"></path> <path class="st0" d="M439.27,54.01c0.01,0.01,0.02,0.03,0.03,0.04c0.01,0.05-0.02,0.1-0.07,0.11 c-0.05,0.01-1.14,0.26-3.15-1.86c-0.22-0.24-0.46-0.48-0.69-0.74c-1.8-1.92-4.04-4.31-5.28-4.4c-0.26,0.52-0.35,1.29-0.42,1.98 c-0.08,0.79-0.14,1.37-0.45,1.47c-0.05,0.02-0.1-0.01-0.12-0.06c-0.02-0.05,0.01-0.1,0.06-0.12c0.19-0.06,0.26-0.7,0.32-1.31 c0.08-0.73,0.16-1.55,0.47-2.1c0.02-0.03,0.05-0.05,0.08-0.05c1.31,0.02,3.52,2.38,5.47,4.46c0.24,0.25,0.47,0.5,0.69,0.74 c1.94,2.04,2.96,1.81,2.97,1.81C439.21,53.98,439.24,53.99,439.27,54.01z"></path> <path class="st0" d="M438.66,48.93c0.04,0.04,0.04,0.1,0,0.13c-0.03,0.03-0.09,0.04-0.12,0.01c-0.01-0.01-0.03-0.02-0.07-0.03 c-1.76-0.8-3.59-2.52-4.83-3.82c-2.73-2.88-3.16-3.27-3.22-3.31c-0.86-0.39-3.18-1.32-3.69-1.03 c-0.05,0.03-0.07,0.06-0.08,0.12c-0.34,1.77,3.42,5.96,3.46,6c0.03,0.04,0.03,0.1-0.01,0.13c-0.04,0.03-0.1,0.03-0.13-0.01 c-0.16-0.17-3.86-4.31-3.51-6.16c0.01-0.11,0.07-0.2,0.17-0.25c0.69-0.4,3.55,0.88,3.88,1.02c0.03,0.02,0.31,0.23,3.26,3.35 c1.22,1.29,3.04,2.99,4.77,3.77C438.62,48.9,438.64,48.91,438.66,48.93z"></path> <path class="st0" d="M437.47,41.96c0.02,0.02,0.03,0.04,0.03,0.07c0,0.05-0.05,0.09-0.1,0.09c-0.07,0-1.65-0.07-3.03-1.64 c-1.23-1.4-2.84-2.4-3.1-2.56c-0.1,0.05-0.44,0.31-0.35,1.48c0.11,1.5-0.34,2.43-0.36,2.47c-0.02,0.05-0.08,0.07-0.13,0.04 c-0.05-0.02-0.07-0.08-0.04-0.13c0-0.01,0.45-0.93,0.34-2.37c-0.11-1.53,0.47-1.68,0.53-1.69c0.02,0,0.04,0,0.06,0.01 c0.02,0.01,1.82,1.08,3.19,2.62c1.32,1.5,2.88,1.57,2.89,1.57C437.43,41.93,437.46,41.94,437.47,41.96z"></path> <path class="st0" d="M426.42,30.6c0.01,0.01,0.02,0.02,0.02,0.03c0.02,0.03,0.02,0.07,0.01,0.1c-0.2,0.54,0.37,1.98,1.52,3.25 l3.4,3.76c0.05,0.05,0.04,0.13-0.01,0.17c-0.05,0.05-0.13,0.04-0.17-0.01l-3.4-3.76c-1.07-1.18-1.74-2.62-1.6-3.37 c-0.62-0.18-3.52-1.17-7.12-4.73c-4.03-3.98-5.99-6.45-6.01-6.47c-0.04-0.05-0.03-0.13,0.02-0.17 c0.05-0.04,0.13-0.03,0.17,0.02c0.02,0.02,1.98,2.48,5.99,6.45c3.99,3.94,7.1,4.69,7.13,4.7 C426.39,30.57,426.41,30.58,426.42,30.6z"></path> <path class="st0" d="M417.93,30.62c0.79,0.79,1.55,1.68,1.92,2.11c2.77,3.33,6.81,8.18,6.81,8.18l-0.19,0.16 c0,0-4.04-4.85-6.81-8.18c-2.52-3.04-3.68-3.61-3.94-3.49c-0.09,0.04-0.11,0.21-0.07,0.47c0.24,1.4,1.52,6.66,1.53,6.71 c0.02,0.07-0.02,0.13-0.09,0.15c-0.07,0.02-0.13-0.02-0.15-0.09c-0.01-0.05-1.29-5.32-1.53-6.73c-0.07-0.39,0-0.64,0.21-0.73 C416.07,28.97,417.02,29.73,417.93,30.62z"></path> <path class="st0" d="M429.13,27.39C429.14,27.39,429.14,27.39,429.13,27.39l1.87,2.28c0.03,0.04,0.03,0.1-0.01,0.13 c-0.04,0.03-0.1,0.03-0.13-0.01l-1.73-2.12c-0.13,0.62-0.7,2.48-2.76,3.1c-0.05,0.01-0.1-0.01-0.12-0.06 c-0.02-0.05,0.01-0.1,0.06-0.12c2.36-0.72,2.66-3.13,2.67-3.15c0-0.04,0.03-0.07,0.07-0.08 C429.07,27.36,429.11,27.37,429.13,27.39z"></path> </g> </g> <g> <radialGradient id="SVGID_00000111176939925261884710000000160078492397161873_" cx="363.3381" cy="16.1207" r="6.0411" gradientTransform="matrix(-1 0 0 1 777.5679 0)" gradientUnits="userSpaceOnUse"> <stop offset="0" style="stop-color:#BD9E6E"></stop> <stop offset="0.2108" style="stop-color:#BC9B6C"></stop> <stop offset="0.3485" style="stop-color:#B79366"></stop> <stop offset="0.4571" style="stop-color:#B0855D"></stop> <stop offset="0.7148" style="stop-color:#AD835C"></stop> <stop offset="0.8833" style="stop-color:#A57D5A"></stop> <stop offset="1" style="stop-color:#997557"></stop> </radialGradient> <path style="opacity:0.9;fill:url(#SVGID_00000111176939925261884710000000160078492397161873_);" d="M410.07,19.81 c0,0-0.06-3.88-1.26-6.32c-1.21-2.45-0.77-1.82,0.15-2.75c0.92-0.93,1.59-0.54,2.02,0.42c0.44,0.96-0.09,1.09-0.92,0.93 c-0.83-0.16-0.26,0.4,0.77,1.29c1.03,0.89,1.26,0.39,2.17,1.94c0.9,1.55,4.33,4.42,6.76,6.16c2.43,1.74-2.52-0.85-6.62-4.43 c-1.23-1.15-0.99,0.47-0.69,1.56c0.3,1.09,0.01,1.46-0.72,1.2c-0.73-0.26-0.23-0.43-0.89,0.24 C410.17,20.71,410.07,20.47,410.07,19.81z"></path> <radialGradient id="SVGID_00000070104114422735081580000013068681917894531208_" cx="389.7376" cy="1324.9401" r="3.8655" gradientTransform="matrix(-0.7113 -0.7029 0.7029 -0.7113 -242.301 1234.1053)" gradientUnits="userSpaceOnUse"> <stop offset="0" style="stop-color:#BD9E6E"></stop> <stop offset="0.2108" style="stop-color:#BC9B6C"></stop> <stop offset="0.3485" style="stop-color:#B79366"></stop> <stop offset="0.4571" style="stop-color:#B0855D"></stop> <stop offset="0.7148" style="stop-color:#AD835C"></stop> <stop offset="0.8833" style="stop-color:#A57D5A"></stop> <stop offset="1" style="stop-color:#997557"></stop> </radialGradient> <path style="opacity:0.5;fill:url(#SVGID_00000070104114422735081580000013068681917894531208_);" d="M410.41,19.47 c0,0,0.39-1.9-0.47-4.15c-0.85-2.25-0.91-2.66,0.19-1.7c1.1,0.95,1.49,0.36,2.5,1.81c1,1.45,2.43,2.67,3.83,3.79 c1.4,1.12-0.99-0.13-3.5-2.66c-1.03-1.02-1.26-0.72-1.06,0.8c0.21,1.52,0.18,2.35-0.39,1.66 C410.95,18.32,410.59,20.48,410.41,19.47z"></path> <radialGradient id="SVGID_00000119838531194224180960000016274111741528591502_" cx="385.6247" cy="1321.488" r="9.0028" gradientTransform="matrix(-0.7113 -0.7029 0.7029 -0.7113 -242.301 1234.1053)" gradientUnits="userSpaceOnUse"> <stop offset="0" style="stop-color:#BD9E6E"></stop> <stop offset="0.2108" style="stop-color:#BC9B6C"></stop> <stop offset="0.3485" style="stop-color:#B79366"></stop> <stop offset="0.4571" style="stop-color:#B0855D"></stop> <stop offset="0.7148" style="stop-color:#AD835C"></stop> <stop offset="0.8833" style="stop-color:#A57D5A"></stop> <stop offset="1" style="stop-color:#997557"></stop> </radialGradient> <path style="opacity:0.5;fill:url(#SVGID_00000119838531194224180960000016274111741528591502_);" d="M410.82,18.45 c0,0,0.16-1.69-0.62-3.44c-0.77-1.75,0.59-0.4,1,0.79C411.61,16.99,410.83,19.64,410.82,18.45z"></path> </g> </g> </g> </g> <g> <g> <path class="st10" d="M484.69,113.52v-1.05h-3.25v1.05c-6.69,0.8-11.89,6.49-11.89,13.4c0,7.46,6.05,13.51,13.51,13.51 c7.46,0,13.51-6.05,13.51-13.51C496.58,120.02,491.39,114.33,484.69,113.52z M487.92,134.4l-4.86-3.55l-4.85,3.55l1.88-5.71 l-4.88-3.52l6.01,0.02l1.84-5.72l1.84,5.72l6.01-0.02l-4.88,3.52L487.92,134.4z"></path> <polygon class="st10" points="490.54,111.21 502.52,91.34 487.48,91.34 475.5,111.21 "></polygon> <polygon class="st10" points="482.12,97.25 478.56,91.34 463.52,91.34 474.6,109.73 "></polygon> </g> </g> <text transform="matrix(1 0 0 1 225.1985 136.9094)" class="st11 st12 st13">Rewards</text> </svg> 