<?xml version="1.0" encoding="utf-8"?>
<!-- Generator: Adobe Illustrator 23.0.0, SVG Export Plug-In . SVG Version: 6.00 Build 0)  -->
<svg version="1.1" id="Capa_1" xmlns="http://www.w3.org/2000/svg" xmlns:xlink="http://www.w3.org/1999/xlink" x="0px" y="0px"
	 viewBox="0 0 947 389" style="enable-background:new 0 0 947 389;" xml:space="preserve">
<g>
	<path d="M284.8,322.75l10.3-12.67c10.3,9.8,22.46,16.21,38.17,16.21c16.04,0,24.32-8.44,24.32-17.73c0-10.98-9.63-15.2-29.05-19.59
		c-23.64-5.57-39.35-12.67-39.35-33.61c0-19.42,16.89-34.11,40.2-34.11c17.9,0,31.24,6.59,42.39,16.38l-9.79,12.84
		c-9.8-8.95-21.45-14.19-33.27-14.19c-13,0-22.12,8.28-22.12,17.56c0,10.81,9.97,14.52,29.05,19.08
		c23.14,5.4,39.18,13.17,39.18,33.95c0,19.59-14.86,34.45-42.22,34.45C313.18,341.32,297.13,334.57,284.8,322.75z"/>
	<path d="M450.67,239.76h-38.7v-16.59h93.98v16.59h-38.7v99.51h-16.59V239.76z"/>
	<path d="M606.87,297.32l29.55,41.95h-19.59l-28.37-40.54h-27.23v40.54h-16.59v-116.1h48.88c24.49,0,43.07,15.79,43.07,37.92
		C636.59,278.99,624.44,292.76,606.87,297.32z M561.24,283.99h29.93c16.72,0,28.03-8.43,28.03-22.11
		c0-13.68-11.31-22.11-28.03-22.11h-29.93V283.99z"/>
	<path d="M904,322.69v16.59h-77.4v-116.1h16.59v99.51H904z"/>
	<path d="M50.78,72.06h17.32l40.7,75.83l40.7-75.83h17.38v116.1h-16.59v-83l-41.46,75.83l-41.46-75.83v83H50.78V72.06z"/>
	<path d="M216.63,72.06h16.59v116.1h-16.59V72.06z"/>
	<polygon points="193.33,245.26 233.69,339.27 252.61,339.27 202.79,223.17 183.87,223.17 134.05,339.27 152.89,339.27 	"/>
	<polygon points="729.59,245.26 769.95,339.27 788.87,339.27 739.05,223.17 720.13,223.17 670.31,339.27 689.15,339.27 	"/>
	<path d="M341,72.06h-18.91l-49.82,116.1h118.56L341,72.06z M331.54,94.14l18.21,42.42h-36.08h-0.38L331.54,94.14z M307.9,171.58
		h-9.67l7.93-18.43h50.71l7.91,18.43H307.9z"/>
</g>
</svg>
