<?xml version="1.0" encoding="UTF-8"?>
<svg xmlns="http://www.w3.org/2000/svg" width="220" height="24" viewBox="0 0 220 24" fill="none">
  <path d="M66.7626 1.397C66.2961 0.948078 65.7382 0.592912 65.1224 0.352884C64.5066 0.112856 63.8458 -0.00707172 63.1796 0.000322219H42.8435C42.1747 -0.00465358 41.5115 0.11624 40.8927 0.355935C40.2739 0.59563 39.7119 0.949327 39.2395 1.39636C38.7672 1.84338 38.3939 2.37477 38.1416 2.9595C37.8892 3.54423 37.7629 4.17056 37.7699 4.80191V17.5765H9.7249C9.38878 17.5765 9.06644 17.4505 8.82877 17.2261C8.59111 17.0018 8.45758 16.6975 8.45758 16.3803V7.61386C8.4573 7.45649 8.48985 7.30061 8.55338 7.15512C8.61692 7.00963 8.71018 6.87737 8.82786 6.7659C8.94555 6.65443 9.08533 6.56594 9.23924 6.50547C9.39316 6.445 9.55818 6.41372 9.7249 6.41345H29.2336C29.5697 6.41345 29.8921 6.28743 30.1297 6.06308C30.3674 5.83874 30.5009 5.53446 30.5009 5.21719V1.20072C30.5012 1.04335 30.4686 0.887469 30.4051 0.741977C30.3416 0.596485 30.2483 0.464237 30.1306 0.35277C30.013 0.241303 29.8732 0.1528 29.7193 0.0923276C29.5653 0.0318553 29.4003 0.000593307 29.2336 0.000322219H5.08247C4.4137 -0.00296884 3.75088 0.119013 3.1324 0.359201C2.51391 0.599389 1.95206 0.953017 1.47936 1.3996C1.00667 1.84618 0.632523 2.37683 0.378603 2.96085C0.124683 3.54487 -0.00396902 4.17063 9.32852e-05 4.80191V19.1984C-0.00338804 19.8293 0.125695 20.4547 0.379876 21.0382C0.634056 21.6217 1.00829 22.1519 1.48092 22.598C1.95356 23.0442 2.51522 23.3974 3.13342 23.6374C3.75161 23.8773 4.41407 23.9991 5.08247 23.9959H44.9469C45.1136 23.9964 45.2786 23.9659 45.4328 23.9062C45.5869 23.8464 45.727 23.7586 45.8451 23.6477C45.9632 23.5368 46.057 23.4049 46.1211 23.2598C46.1852 23.1146 46.2183 22.9589 46.2186 22.8017V17.2088C46.2183 17.0518 46.2509 16.8962 46.3143 16.7511C46.3778 16.606 46.4709 16.4741 46.5884 16.363C46.7059 16.2519 46.8455 16.1637 46.9991 16.1036C47.1527 16.0434 47.3174 16.0125 47.4838 16.0125H58.4912C58.6575 16.0125 58.8222 16.0434 58.9758 16.1036C59.1295 16.1637 59.269 16.2519 59.3865 16.363C59.5041 16.4741 59.5972 16.606 59.6606 16.7511C59.7241 16.8962 59.7566 17.0518 59.7563 17.2088V22.8017C59.7566 22.9589 59.7897 23.1146 59.8538 23.2598C59.9179 23.4049 60.0117 23.5368 60.1298 23.6477C60.2479 23.7586 60.3881 23.8464 60.5422 23.9062C60.6963 23.9659 60.8614 23.9964 61.028 23.9959H66.9925C67.1591 23.9964 67.3242 23.9659 67.4783 23.9062C67.6324 23.8464 67.7725 23.7586 67.8906 23.6477C68.0088 23.5368 68.1026 23.4049 68.1666 23.2598C68.2307 23.1146 68.2639 22.9589 68.2642 22.8017V4.80191C68.2767 4.16723 68.1498 3.53698 67.8914 2.95094C67.6329 2.3649 67.2486 1.83579 66.7626 1.397ZM59.7585 8.40309C59.7588 8.56009 59.7263 8.71561 59.6628 8.86074C59.5994 9.00586 59.5062 9.13775 59.3887 9.24886C59.2712 9.35997 59.1317 9.44812 58.978 9.50827C58.8244 9.56841 58.6597 9.59937 58.4934 9.59937H47.4859C47.3196 9.59937 47.1549 9.56841 47.0013 9.50827C46.8477 9.44812 46.7081 9.35997 46.5906 9.24886C46.4731 9.13775 46.3799 9.00586 46.3165 8.86074C46.253 8.71561 46.2205 8.56009 46.2208 8.40309V7.61386C46.2202 7.45659 46.2525 7.30075 46.3158 7.15527C46.3791 7.00979 46.4722 6.87752 46.5897 6.76602C46.7072 6.65453 46.8468 6.566 47.0006 6.50551C47.1544 6.44501 47.3193 6.41372 47.4859 6.41345H58.4934C58.66 6.41372 58.8249 6.44501 58.9787 6.50551C59.1325 6.566 59.2721 6.65453 59.3896 6.76602C59.5071 6.87752 59.6002 7.00979 59.6635 7.15527C59.7268 7.30075 59.7591 7.45659 59.7585 7.61386V8.40309Z" fill="white"></path>
  <path d="M143.257 0.00239776H98.9291C98.5928 0.00239729 98.2702 0.128368 98.0322 0.352651C97.7942 0.576935 97.6602 0.881199 97.6596 1.19866V16.3865C97.6596 16.7037 97.5261 17.008 97.2884 17.2324C97.0508 17.4567 96.7284 17.5827 96.3923 17.5827H85.3411C85.0048 17.5827 84.6822 17.4568 84.4442 17.2325C84.2062 17.0082 84.0722 16.7039 84.0716 16.3865V1.19866C84.0716 1.04139 84.0388 0.885668 83.9749 0.740396C83.9111 0.595123 83.8176 0.463157 83.6997 0.352046C83.5817 0.240936 83.4418 0.152861 83.2878 0.0928647C83.1338 0.0328684 82.9687 0.00212614 82.8021 0.00239776H76.8924C76.5563 0.00239776 76.2339 0.128434 75.9962 0.352778C75.7586 0.577121 75.6251 0.881388 75.6251 1.19866V19.1963C75.6183 19.8282 75.7452 20.455 75.9982 21.04C76.2512 21.6251 76.6253 22.1566 77.0985 22.6035C77.5718 23.0504 78.1347 23.4038 78.7544 23.6429C79.3741 23.8819 80.038 24.0019 80.7074 23.9959H101.026C101.695 24.0019 102.359 23.8819 102.979 23.6429C103.599 23.4038 104.162 23.0504 104.635 22.6035C105.108 22.1566 105.482 21.6251 105.735 21.04C105.988 20.455 106.115 19.8282 106.108 19.1963V6.41966H123.743C124.08 6.41966 124.402 6.54563 124.64 6.76992C124.878 6.9942 125.012 7.29846 125.013 7.61592V22.8037C125.013 23.121 125.146 23.4253 125.384 23.6496C125.622 23.874 125.944 24 126.28 24H132.201C132.537 24 132.86 23.874 133.098 23.6497C133.336 23.4255 133.47 23.1212 133.47 22.8037V7.6118C133.47 7.45453 133.503 7.2988 133.567 7.15352C133.631 7.00825 133.725 6.87629 133.842 6.76517C133.96 6.65406 134.1 6.56599 134.254 6.50599C134.408 6.446 134.573 6.41526 134.74 6.41553H143.248C143.585 6.41553 143.907 6.28927 144.145 6.06454C144.384 5.83981 144.517 5.53502 144.517 5.2172V1.19866C144.517 0.882625 144.384 0.5796 144.148 0.355552C143.912 0.131503 143.591 0.00457684 143.257 0.00239776Z" fill="white"></path>
  <path d="M199.224 6.41966H218.733C219.069 6.41966 219.391 6.29363 219.629 6.06928C219.866 5.84494 220 5.54067 220 5.2234V1.20073C220 0.883075 219.867 0.578382 219.629 0.353383C219.392 0.128383 219.069 0.00142294 218.733 0.00032948H194.577C193.275 -0.00689294 192.023 0.471281 191.093 1.33089C190.609 1.74445 190.219 2.24537 189.944 2.80397C189.67 3.36258 189.517 3.96751 189.495 4.58291V13.9857C189.495 14.3029 189.628 14.6072 189.866 14.8316C190.104 15.0559 190.426 15.1819 190.762 15.1819H210.275C210.612 15.183 210.934 15.31 211.172 15.535C211.409 15.76 211.543 16.0647 211.543 16.3823C211.543 16.6996 211.409 17.0039 211.171 17.2282C210.934 17.4526 210.611 17.5786 210.275 17.5786H182.101V4.80191C182.105 4.17064 181.976 3.54488 181.723 2.96086C181.469 2.37684 181.094 1.84618 180.622 1.3996C180.149 0.953024 179.587 0.599397 178.969 0.359209C178.35 0.119021 177.687 -0.00296158 177.019 0.00032948H156.678C156.009 -0.00405962 155.345 0.117116 154.725 0.356813C154.106 0.596509 153.543 0.94995 153.069 1.39664C152.596 1.84333 152.221 2.37437 151.966 2.95893C151.712 3.54349 151.583 4.16994 151.587 4.80191V19.1984C151.584 19.8293 151.713 20.4547 151.967 21.0382C152.221 21.6217 152.595 22.1519 153.068 22.5981C153.541 23.0442 154.102 23.3974 154.72 23.6374C155.339 23.8773 156.001 23.9991 156.669 23.9959H214.909C215.56 24.0025 216.206 23.8865 216.81 23.6544C217.413 23.4224 217.961 23.0791 218.422 22.6446C219.375 21.8061 219.939 20.6463 219.991 19.4174V10.0105C219.991 9.69325 219.858 9.38897 219.62 9.16463C219.382 8.94029 219.06 8.81426 218.724 8.81426H199.215C199.048 8.81453 198.883 8.78367 198.728 8.72344C198.574 8.66321 198.434 8.5748 198.315 8.46328C198.197 8.35176 198.104 8.21931 198.04 8.07355C197.976 7.92779 197.943 7.77158 197.944 7.61387C197.945 7.296 198.08 6.99162 198.318 6.76685C198.556 6.54209 198.878 6.41509 199.215 6.41346L199.224 6.41966ZM173.644 16.3927C173.64 16.7071 173.506 17.0075 173.269 17.2291C173.033 17.4507 172.714 17.5755 172.381 17.5765H161.325C161.158 17.5771 160.993 17.5465 160.839 17.4867C160.684 17.4268 160.544 17.3388 160.426 17.2276C160.308 17.1165 160.214 16.9844 160.15 16.839C160.086 16.6936 160.053 16.5377 160.053 16.3803V7.61387C160.053 7.45615 160.086 7.29993 160.15 7.15417C160.213 7.00841 160.307 6.87596 160.425 6.76444C160.543 6.65292 160.684 6.56452 160.838 6.50429C160.992 6.44406 161.158 6.41319 161.325 6.41346H172.381C172.547 6.41346 172.713 6.44454 172.867 6.50492C173.021 6.5653 173.161 6.65378 173.278 6.7653C173.396 6.87682 173.489 7.00918 173.553 7.1548C173.616 7.30041 173.649 7.45642 173.648 7.61387L173.644 16.3927Z" fill="white"></path>
</svg>
