<svg xmlns="http://www.w3.org/2000/svg" viewBox="0 0 600.25 202.88"><defs><style>.cls-1{fill:#ea7979;}</style></defs><g id="Capa_2" data-name="Capa 2"><g id="Capa_1-2" data-name="Capa 1"><path class="cls-1" d="M267.72,193.55v7h-84v-7c15.84-.5,15.84-13.1,15.84-27.77V107.93c0-13.53-6.15-23.39-15.41-24.8-11.32-1.73-19.57,16.56-22.92,22.8,0,.12-.5,59.85-.5,59.85,0,15.82-2.36,26.93,13.48,27.77v7H93.46v-7c17.43-.5,15.84-13.1,15.84-27.77V107.93c0-13.53-4.33-22.64-13.45-24.8C80,79.38,68.91,101,65.74,105.62v59.54c0,18.67-.79,28.23,18.22,28.46v6.89H0v-6.89c13.47-1.94,19-5.35,19-28.46V93.67c0-12.81-3.17-16.56-19-18.43V70l19.88.18a256.84,256.84,0,0,0,41.54-3L65.74,66V98.77C78.41,76.13,103.05,63.22,119.34,63,142,62.79,158.51,72.34,161.16,98c0,.06.12,0,.12,0,12-22.87,29.62-34.75,46-34.94,24.76-.27,40.63,12.59,40.63,43.75v59C247.91,181.6,247.91,192.71,267.72,193.55Z"/><circle class="cls-1" cx="322.23" cy="31.34" r="21.15"/><path class="cls-1" d="M596.23,159.32c-.46,0-1,1.19-1.46,2.23a45.91,45.91,0,0,1-3.43,5.41,81.4,81.4,0,0,1-6.79,7.74,51.65,51.65,0,0,1-14,9.07,35.09,35.09,0,0,1-6.25,1.84c-.52.11-1.05.2-1.57.28a38.62,38.62,0,0,1-6.3.52c-.64,0-2.21,0-2.85-.09-23.67-1.16-43.53-24.22-43.53-52.5v-2.41c0-.16,83.16-.2,83.16-.2l.19,0a65.92,65.92,0,0,0-1.27-15.37c-7-34.82-40.33-57.1-74.44-49.76a62.47,62.47,0,0,0-22.82,10l-.36.21a68.22,68.22,0,0,0-29.86,56.61c-.23,41.85,35.3,70.15,73.21,70,29.64-.08,53.23-20.59,62.35-43.56Zm-86.77-37.88c0-28.58,9.39-51.76,21-51.76s20.78,22.69,21,50.85l-1.34.45a271.18,271.18,0,0,1-38.79,3.69l-1.79-.06C509.47,123.76,509.46,122.3,509.46,121.44Z"/><path class="cls-1" d="M341.65,67.61a270.9,270.9,0,0,1-42.09,2.93l-20-.17v5.11c16.63,1.82,18.21,5.49,18.21,18V166c0,22.59-4.75,25.93-18.21,27.82v6.72h84.75v-6.8c-19.8-.23-18.22-9.48-18.22-27.74V66.45Z"/><path class="cls-1" d="M437.37,1.15a274,274,0,0,1-42.43,2.94l-20.3-.17V9c15.85,1.82,19,5.49,19,18V166c0,22.59-5.54,25.93-19,27.82v6.72h84.75v-6.8C441.18,193.48,442,184.23,442,166V0Z"/></g></g></svg>