<svg xmlns="http://www.w3.org/2000/svg" width="102" height="64" viewBox="0 0 102 64" fill="none"><path d="M78.03 23C75.25 23 73 25.26 73 28C73 29.34 73.54 30.58 74.44 31.55C75.4 32.52 76.63 33 77.97 33C80.75 33 83 30.74 83 28C83 25.26 80.75 23 78.03 23Z" fill="#7D6EF2"></path><path d="M87.87 27.95V36.79C87.87 37.13 87.59 37.36 87.3 37.36H84.22C83.88 37.36 83.65 37.08 83.65 36.79V35.88C82.11 36.9 80.29 37.47 78.29 37.47C75.73 37.47 73.28 36.45 71.45 34.64C69.63 32.83 68.66 30.45 68.66 27.84C68.66 22.57 72.99 18.26 78.29 18.26C82.51 18.26 86.15 21.04 87.41 24.84C87.7 25.69 87.81 26.6 87.81 27.5L87.87 27.95ZM65.99 36.85C65.99 37.19 65.7 37.42 65.42 37.42H62.29C61.95 37.42 61.72 37.14 61.72 36.85V26.65C61.72 24.38 60.01 22.62 57.9 22.62C56.87 22.62 55.91 23.02 55.16 23.75C54.42 24.49 54.02 25.51 54.02 26.58V36.78C54.02 37.12 53.73 37.35 53.45 37.35H50.32C49.98 37.35 49.75 37.07 49.75 36.78V26.58C49.75 24.37 50.55 22.33 52.09 20.74C53.63 19.15 55.68 18.3 57.9 18.3C62.46 18.3 66.05 21.93 66.05 26.58L65.99 36.84V36.85ZM46.78 29.25C46.78 31.46 45.98 33.5 44.44 35.09C42.9 36.68 40.85 37.53 38.63 37.53C34.07 37.53 30.48 33.9 30.48 29.25V19.44C30.48 19.1 30.76 18.87 31.05 18.87H34.18C34.52 18.87 34.75 19.15 34.75 19.44V29.25C34.75 31.52 36.46 33.27 38.57 33.27C39.59 33.27 40.56 32.87 41.31 32.14C42.05 31.4 42.45 30.38 42.45 29.3V19.49C42.45 19.15 42.73 18.92 43.02 18.92H46.15C46.49 18.92 46.72 19.2 46.72 19.49L46.78 29.24V29.25ZM27.64 22.39C27.64 22.73 27.35 22.96 27.07 22.96H25.76C22.8 22.96 20.4 25 20.4 27.89V36.73C20.4 37.07 20.11 37.3 19.83 37.3H16.7C16.36 37.3 16.13 37.02 16.13 36.73V19.38C16.13 19.04 16.42 18.81 16.7 18.81H19.83C20.17 18.81 20.4 19.09 20.4 19.38V20.17C21.94 19.21 23.76 18.7 25.76 18.7H27.07C27.41 18.7 27.64 18.98 27.64 19.27V22.39ZM85.25 0.0599976L16.81 0C7.58 0 0 7.48 0 16.67V54.76C0 54.93 -2.44007e-06 55.04 0.0599976 55.21C0.569998 60.14 4.72999 64 9.79999 64C11.51 64 13.16 63.55 14.53 62.81H14.59L14.65 62.75C15.16 62.47 15.67 62.13 16.13 61.73L25.13 55.49L85.19 55.55C94.42 55.55 102 48.07 102 38.88V16.89C102 7.59 94.48 0.0499954 85.25 0.0499954" fill="#7D6EF2"></path></svg>
