<svg xmlns="http://www.w3.org/2000/svg" viewBox="0 0 679.71 529.88"><defs><style>.cls-1{fill:#ddd7c9;}</style></defs><g id="Capa_2" data-name="Capa 2"><g id="Capa_1-2" data-name="Capa 1"><path class="cls-1" d="M29.75,242a37.38,37.38,0,0,1,18.12-4.35,35.63,35.63,0,0,1,25.65,10.23l7.83-7.84a39.26,39.26,0,0,0-14.72-10.16,51.2,51.2,0,0,0-19.26-3.48,50.55,50.55,0,0,0-24.32,5.81A42.89,42.89,0,0,0,6.13,248.39a47,47,0,0,0,0,46.42A43.42,43.42,0,0,0,23,311a49.4,49.4,0,0,0,24.13,5.88A57.08,57.08,0,0,0,65.31,314a46.78,46.78,0,0,0,15.28-8.34V274.15h0v-8.71H41.08v10.89H68.46v23.6a37.44,37.44,0,0,1-20.71,5.68,36.59,36.59,0,0,1-18-4.42A32.31,32.31,0,0,1,17.18,289a35.66,35.66,0,0,1,0-34.86A32,32,0,0,1,29.75,242Z"/><path class="cls-1" d="M293.47,311a43,43,0,0,0,16.8-16.17,47.28,47.28,0,0,0,0-46.35,43,43,0,0,0-16.8-16.17,52.16,52.16,0,0,0-48.12,0,43.38,43.38,0,0,0-16.87,16.23,46.71,46.71,0,0,0,0,46.23A43.38,43.38,0,0,0,245.35,311a52.16,52.16,0,0,0,48.12,0Zm-54-22a35.89,35.89,0,0,1,0-34.73,32.22,32.22,0,0,1,12.38-12.19,35.41,35.41,0,0,1,17.62-4.42,34.72,34.72,0,0,1,17.5,4.42,32.44,32.44,0,0,1,12.25,12.19,35.89,35.89,0,0,1,0,34.73A32.37,32.37,0,0,1,287,301.19a34.72,34.72,0,0,1-17.5,4.42,35.41,35.41,0,0,1-17.62-4.42A32.15,32.15,0,0,1,239.47,289Z"/><polygon class="cls-1" points="441.48 299.68 417.1 227.42 405.48 227.42 380.59 299.3 356.72 227.42 343.71 227.42 373.27 315.85 386.78 315.85 410.91 245.23 435.04 315.85 448.3 315.85 477.86 227.42 465.86 227.42 441.48 299.68"/><polygon class="cls-1" points="499.08 238.41 529.4 238.41 529.4 315.85 541.9 315.85 541.9 238.41 572.22 238.41 572.22 227.42 499.08 227.42 499.08 238.41"/><polygon class="cls-1" points="667.08 227.42 667.08 265.45 616.3 265.45 616.3 227.42 603.67 227.42 603.67 315.85 616.3 315.85 616.3 276.44 667.08 276.44 667.08 315.85 679.71 315.85 679.71 227.42 667.08 227.42"/><polygon class="cls-1" points="225.92 196.18 238.42 196.18 238.42 118.75 268.74 118.75 268.74 107.76 195.6 107.76 195.6 118.75 225.92 118.75 225.92 196.18"/><polygon class="cls-1" points="300.24 107.76 300.19 107.76 300.19 196.18 312.82 196.18 312.82 166.15 312.87 166.15 312.87 156.77 363.6 156.77 363.6 196.18 376.23 196.18 376.23 107.76 363.6 107.76 363.6 145.78 312.87 145.78 312.87 17.64 324.17 17.64 306.52 0 288.88 17.64 300.24 17.64 300.24 107.76"/><polygon class="cls-1" points="433.08 156.64 477.41 156.64 477.41 145.9 433.08 145.9 433.08 118.75 482.85 118.75 482.85 107.76 420.44 107.76 420.44 196.18 484.62 196.18 484.62 185.19 433.08 185.19 433.08 156.64"/><path class="cls-1" d="M202.42,347.09l-55.07-58h7.17q17.17,0,27-8.21t9.85-22.61q0-14.42-9.85-22.62t-27-8.21H120V322h12.63v-33h.14l55.93,57.55-56.54,60.45V371.61H120v76.68h12.16V422.22l20.4-20.72,40.32,46.79h13.91l-46.14-55.85Zm-69.76-69V238.41h21.48q12,0,18.31,5.12t6.32,14.72q0,9.6-6.32,14.71t-18.31,5.12Z"/><polygon class="cls-1" points="265.6 401.84 317.68 401.84 317.68 391.91 265.6 391.91 265.6 357.32 324.06 357.32 324.06 347.09 253.44 347.09 253.44 448.29 326.14 448.29 326.14 438.06 265.6 438.06 265.6 401.84"/><polygon class="cls-1" points="409.98 403.08 375.99 347.09 363.25 347.09 403.46 413.05 403.46 529.88 415.47 529.88 415.47 413.35 455.69 347.09 444.13 347.09 409.98 403.08"/><path class="cls-1" d="M550.17,398.34a146,146,0,0,0-18.65-5.58,139.48,139.48,0,0,1-14.47-4,26.17,26.17,0,0,1-9.3-5.48,12.71,12.71,0,0,1-4-9.66,15.39,15.39,0,0,1,6.85-12.95c4.42-3.23,11-4.86,19.71-4.86a53.82,53.82,0,0,1,14.92,2.2,55.46,55.46,0,0,1,12.93,5.63l3.89-9.41a48.23,48.23,0,0,0-14-6,69.28,69.28,0,0,0-17.76-2.33c-8.57,0-15.82,1.31-21.56,3.89s-9.95,6-12.71,10.2a25.53,25.53,0,0,0-4.16,14.25c0,6.27,1.61,11.29,4.79,14.93a30,30,0,0,0,11.8,8.31,149.18,149.18,0,0,0,18.74,5.59c6.25,1.49,11.16,2.85,14.59,4a24.9,24.9,0,0,1,9.1,5.42,12.81,12.81,0,0,1,3.9,9.65c0,5.29-2.34,9.58-7,12.75s-11.21,4.61-20.05,4.61a57.35,57.35,0,0,1-19.52-3.42,48.62,48.62,0,0,1-14.3-7.78l-4.31,9.09c3.93,3.42,9.28,6.27,15.92,8.48a70,70,0,0,0,22.21,3.57c8.58,0,15.89-1.29,21.72-3.82s10.11-5.94,12.92-10.2a25.31,25.31,0,0,0,4.23-14.17c0-6.17-1.61-11.11-4.78-14.7A30.46,30.46,0,0,0,550.17,398.34Z"/></g></g></svg>