<svg xmlns="http://www.w3.org/2000/svg" width="209" height="46" viewBox="0 0 209 46" fill="none"><path d="M12.4265 45.8957L12.0743 45.8332L8.75279 45.138L5.29039 43.8451L3.99422 43.2056L2.69449 42.5626L1.6836 41.8883L0.67272 41.1932L0.0950647 40.5607L0 24.1418L0.30996 14.045L0.489556 13.7948L0.67272 13.5411L9.18602 6.36042L16.935 0H17.879L21.3343 0.841118L23.0672 1.39721L24.219 1.84906L25.3743 2.30435L28.7874 4.04216L29.3897 4.56699L29.992 5.09529L30.0835 31.8716L28.3013 33.4878L26.519 35.1074L19.0237 41.4156L14.2616 45.4717L13.3951 46H13.1063L12.8174 45.9792L12.4265 45.8957ZM6.58307 37.1337L7.1572 36.6749L12.9302 31.9237L13.2577 31.5762L13.5818 31.2286L13.5078 8.91153L13.219 8.82116L5.86099 14.8757L5.78704 37.5855H6.00894L6.58307 37.1337ZM19.2632 34.9614L21.5597 33.1854L24.3775 30.7385V8.55701L24.2331 8.47011L24.0922 8.38322L20.4079 11.3028L18.5834 12.839L16.7624 14.3787L16.6074 14.9557L16.7448 36.5046V36.7201H16.9631L19.2561 34.9475L19.2632 34.9614Z" fill="white"></path><path d="M45.1128 17.0028H38.5051V13.8747H55.4119V17.0028H48.8077V32.1253H45.1093L45.1128 17.0028Z" fill="white"></path><path d="M57.2752 13.8747H61.2095L65.3588 26.6512L68.8986 13.8747H72.7168L76.239 26.6512L80.4129 13.8747H84.3402L78.1305 32.1253H74.1961L70.8112 19.8459L67.4298 32.1253H63.492L57.2752 13.8747Z" fill="white"></path><path d="M87.5807 13.8747H91.279V32.1253H87.5807V13.8747Z" fill="white"></path><path d="M94.5301 13.8747H99.2886L106.685 27.1447V13.8747H110.384V32.1253H105.629L98.2319 18.8553V32.1253H94.5301V13.8747Z" fill="white"></path><path d="M113.635 13.8747H124.6C125.376 13.8709 126.149 13.9679 126.9 14.1632C127.591 14.3399 128.238 14.6546 128.802 15.0877C129.366 15.5387 129.807 16.1217 130.084 16.7838C130.412 17.6004 130.569 18.4742 130.545 19.3523C130.56 20.132 130.453 20.9092 130.228 21.6567C130.043 22.2599 129.743 22.8226 129.344 23.3146C128.974 23.7581 128.514 24.1214 127.995 24.3816C127.465 24.6463 126.901 24.8392 126.318 24.955L130.521 32.1253H126.255L122.345 25.0871H117.351V32.1253H113.652L113.635 13.8747ZM124.6 21.959C125.18 21.9718 125.745 21.7712 126.185 21.396C126.626 21.0253 126.847 20.344 126.847 19.3523C126.847 18.4834 126.626 17.874 126.185 17.5241C125.734 17.1736 125.173 16.9893 124.6 17.0028H117.333V21.959H124.6Z" fill="white"></path><path d="M141.175 13.8747H145.166L153.408 32.1253H149.287L147.73 28.4759H138.615L137.054 32.1253H132.947L141.175 13.8747ZM146.381 25.3443L143.158 17.8856L139.96 25.3443H146.381Z" fill="white"></path><path d="M155.796 13.8747H160.551L167.948 27.1447V13.8747H171.646V32.1253H166.891L159.495 18.8553V32.1253H155.796V13.8747Z" fill="white"></path><path d="M182.509 22.9983L190.755 32.1253H185.971L180.174 25.5841L178.599 27.3289V32.1253H174.901V13.8747H178.599V22.1919L185.971 13.8747H190.755L182.509 22.9983Z" fill="white"></path><path d="M193.139 28.9972H202.783C203.406 29.0126 204.019 28.8444 204.544 28.5141C205.037 28.1944 205.284 27.6139 205.284 26.7763C205.284 25.9387 205.037 25.386 204.544 25.0385C204.021 24.7017 203.407 24.5296 202.783 24.5449H198.292C197.499 24.5539 196.708 24.4617 195.939 24.2704C195.278 24.1104 194.664 23.8023 194.143 23.3702C193.628 22.9228 193.238 22.3534 193.009 21.7158C192.724 20.9074 192.589 20.055 192.611 19.1994C192.588 18.3358 192.722 17.4751 193.009 16.6587C193.238 16.0201 193.628 15.4496 194.143 15.0008C194.663 14.5703 195.278 14.2667 195.939 14.1146C196.71 13.9334 197.5 13.8458 198.292 13.8539H208.464V16.982H198.813C198.191 16.9689 197.579 17.1369 197.052 17.4651C196.559 17.7895 196.313 18.3687 196.313 19.2029C196.313 20.037 196.559 20.6163 197.052 20.9407C197.575 21.2787 198.189 21.452 198.813 21.4377H203.304C204.097 21.4294 204.888 21.5205 205.657 21.7088C206.318 21.8702 206.932 22.1781 207.454 22.609C207.968 23.0578 208.358 23.6283 208.588 24.2669C208.873 25.074 209.008 25.9253 208.986 26.7798C209.011 27.6492 208.876 28.516 208.588 29.3378C208.355 29.97 207.965 30.5342 207.454 30.9783C206.934 31.4088 206.318 31.7125 205.657 31.8646C204.887 32.0459 204.096 32.1334 203.304 32.1253H193.132L193.139 28.9972Z" fill="white"></path></svg>
