<svg xmlns="http://www.w3.org/2000/svg" viewBox="0 0 811 247.22"><defs><style>.cls-1{fill:#8c8c8c;}.cls-2{fill:#6fa59b;}.cls-3{fill:#f7887d;}</style></defs><g id="Capa_2" data-name="Capa 2"><g id="Capa_1-2" data-name="Capa 1"><path class="cls-1" d="M276.79,17.82a34.09,34.09,0,0,1,17.73,4.76,36.25,36.25,0,0,1,12.77,12.83,34.19,34.19,0,0,1,4.77,17.77,34,34,0,0,1-4.77,17.72,36.63,36.63,0,0,1-12.77,12.82,33.93,33.93,0,0,1-17.82,4.82H255.83v10l-14.4,7.2V53.18a34,34,0,0,1,4.77-17.73A36.44,36.44,0,0,1,259,22.63,34,34,0,0,1,276.79,17.82Zm-.09,56.32A20.14,20.14,0,0,0,291.55,68a20.3,20.3,0,0,0,6.11-14.8,20.27,20.27,0,0,0-6.11-14.8,20.79,20.79,0,0,0-29.56,0,20.16,20.16,0,0,0-6.16,14.8v21Z"/><path class="cls-1" d="M354.44,17.91a34.25,34.25,0,0,1,17.82,4.76A36.35,36.35,0,0,1,385,35.45a34.17,34.17,0,0,1,4.77,17.82V88.54H354.53a34.22,34.22,0,0,1-17.77-4.77A36,36,0,0,1,323.94,71a34.25,34.25,0,0,1-4.77-17.77,34,34,0,0,1,4.77-17.73,36.3,36.3,0,0,1,12.78-12.78A34,34,0,0,1,354.44,17.91Zm21,56.23V53.27a20.9,20.9,0,0,0-21-21,20.9,20.9,0,0,0-20.87,20.88,21,21,0,0,0,21,21Z"/><path class="cls-1" d="M396.91,53.36a34.19,34.19,0,0,1,4.77-17.77A36.07,36.07,0,0,1,414.5,22.76a33.27,33.27,0,0,1,22.09-4.41,23.4,23.4,0,0,1,5.13,1.35l-5,13.5a9.54,9.54,0,0,0-2.38-.63,15.94,15.94,0,0,0-2-.18,21,21,0,0,0-21,21V88.54h-14.4Z"/><path class="cls-1" d="M484.1,17.91a34.25,34.25,0,0,1,17.82,4.76,36.27,36.27,0,0,1,12.77,12.78,34.17,34.17,0,0,1,4.77,17.82v7.19h-55a21.52,21.52,0,0,0,7.65,9.86,20.06,20.06,0,0,0,12.05,3.82h22.32v14.4H484.19a34.22,34.22,0,0,1-17.77-4.77A36,36,0,0,1,453.6,71a34.25,34.25,0,0,1-4.77-17.77,34,34,0,0,1,4.77-17.73,36.3,36.3,0,0,1,12.78-12.78A34.05,34.05,0,0,1,484.1,17.91ZM464.49,46.07h39.32a21.49,21.49,0,0,0-7.61-9.94,20.89,20.89,0,0,0-24.11,0A21.47,21.47,0,0,0,464.49,46.07Z"/><path class="cls-1" d="M558.16,18A30.23,30.23,0,0,1,574,22.27,32.56,32.56,0,0,1,585.37,33.7a30.37,30.37,0,0,1,4.28,15.88v39h-14.4v-39a17.14,17.14,0,1,0-34.28,0v39h-14.4v-39a30.37,30.37,0,0,1,4.28-15.88,32.59,32.59,0,0,1,11.43-11.43A30.34,30.34,0,0,1,558.16,18Z"/><path class="cls-1" d="M632.12,74.14a15.81,15.81,0,0,0,2-.18,9.62,9.62,0,0,0,2.39-.63l5,13.5a22.33,22.33,0,0,1-5.13,1.35,32.74,32.74,0,0,1-4.32.36,34.22,34.22,0,0,1-17.77-4.77A36,36,0,0,1,601.53,71a34.25,34.25,0,0,1-4.77-17.77V0h14.39V17.28h22.59V31.67H611.15V53.18a21,21,0,0,0,21,21Z"/><path class="cls-1" d="M663.37,7.67l-.3,14.1H648.68V7.67ZM648.68,88.54V35.45h14.39V88.54Z"/><path class="cls-1" d="M701.77,18a30.2,30.2,0,0,1,15.79,4.28A32.56,32.56,0,0,1,729,33.7a30.37,30.37,0,0,1,4.28,15.88v39h-14.4v-39a16.56,16.56,0,0,0-5-12.15,17,17,0,0,0-24.2,0,16.56,16.56,0,0,0-5,12.15v39H670.19v-39a30.36,30.36,0,0,1,4.27-15.88,32.59,32.59,0,0,1,11.43-11.43A30.34,30.34,0,0,1,701.77,18Z"/><path class="cls-1" d="M775.64,17.91a34.19,34.19,0,0,1,17.81,4.76A36.2,36.2,0,0,1,806.23,35.5,34.19,34.19,0,0,1,811,53.27V91a34.26,34.26,0,0,1-4.77,17.78,36.17,36.17,0,0,1-12.78,12.82,34.1,34.1,0,0,1-17.81,4.76V111.93a20.95,20.95,0,0,0,21-21V88.54H775.73A34.22,34.22,0,0,1,758,83.77,36.09,36.09,0,0,1,745.14,71a34.16,34.16,0,0,1-4.77-17.81,34,34,0,0,1,4.77-17.73,36.35,36.35,0,0,1,12.77-12.78A34.09,34.09,0,0,1,775.64,17.91ZM754.77,53.18a21,21,0,0,0,21,21H796.6V53.27a21,21,0,0,0-21-21,20.88,20.88,0,0,0-20.87,20.88Z"/><path class="cls-2" d="M386.31,112.75a42.4,42.4,0,0,1,22.1,5.91,44.77,44.77,0,0,1,15.84,15.9,42.41,42.41,0,0,1,5.92,22v46.76a42.38,42.38,0,0,1-5.92,22,44.69,44.69,0,0,1-15.84,15.9,42.31,42.31,0,0,1-22.1,5.92V229.36a26,26,0,0,0,26-26v-3H386.42a42.41,42.41,0,0,1-22-5.92,44.77,44.77,0,0,1-15.9-15.84,44.05,44.05,0,0,1,0-44.08,44.9,44.9,0,0,1,15.85-15.85A42.18,42.18,0,0,1,386.31,112.75Zm-25.89,43.74a26,26,0,0,0,26,26h25.89V156.6a25.95,25.95,0,1,0-51.89-.11Z"/><path class="cls-2" d="M440.83,156.72a42.38,42.38,0,0,1,5.92-22,44.64,44.64,0,0,1,15.9-15.91,42.49,42.49,0,0,1,22-5.91,41.9,41.9,0,0,1,5.36.44,27.8,27.8,0,0,1,6.36,1.68l-6.25,16.74a12,12,0,0,0-3-.78,19.65,19.65,0,0,0-2.51-.23,26.1,26.1,0,0,0-26,26v43.63H440.83Z"/><path class="cls-2" d="M541.6,112.75a42.43,42.43,0,0,1,22.1,5.91,44.87,44.87,0,0,1,15.84,15.85,42.28,42.28,0,0,1,5.92,22.09v43.75H541.71a42.41,42.41,0,0,1-22-5.92,44.62,44.62,0,0,1-15.9-15.9,43.94,43.94,0,0,1,0-44,44.9,44.9,0,0,1,15.85-15.85A42.18,42.18,0,0,1,541.6,112.75Zm26,69.74V156.6a25.88,25.88,0,1,0-25.89,25.89Z"/><path class="cls-2" d="M638,130.6a24.81,24.81,0,0,0-18.3,7.65A25.91,25.91,0,0,0,638,182.49q11.26,0,19.53-8.92l13.5,11.83Q657,200.34,638,200.35a42.1,42.1,0,0,1-22-5.92,44.84,44.84,0,0,1-15.84-15.84,43.89,43.89,0,0,1,0-44A44.77,44.77,0,0,1,616,118.66a42.19,42.19,0,0,1,22-5.91q19,0,33,15.06l-13.5,11.72Q649.29,130.61,638,130.6Z"/><path class="cls-2" d="M723.62,112.75a42.4,42.4,0,0,1,22.1,5.91,45,45,0,0,1,15.85,15.85,42.36,42.36,0,0,1,5.91,22.09v8.93H699.3a26.59,26.59,0,0,0,9.48,12.22,25,25,0,0,0,15,4.74h27.68v17.86H723.73a42.35,42.35,0,0,1-22-5.92,44.56,44.56,0,0,1-15.91-15.9,43.94,43.94,0,0,1,0-44,44.9,44.9,0,0,1,15.85-15.85A42.18,42.18,0,0,1,723.62,112.75ZM699.3,147.68h48.76a26.62,26.62,0,0,0-9.43-12.33,25.92,25.92,0,0,0-29.91,0A26.66,26.66,0,0,0,699.3,147.68Z"/><path class="cls-3" d="M267.22,134.68V120.44h4.67v14.24a8.35,8.35,0,0,1-2.58,6.17,8.81,8.81,0,0,1-12.68-.27,8.85,8.85,0,0,1-12.71.27,8.35,8.35,0,0,1-2.58-6.17V120.44H246v14.24a3.91,3.91,0,0,0,1.21,2.89,4.18,4.18,0,0,0,5.86,0,3.91,3.91,0,0,0,1.21-2.89V120.44H259v14.24a3.94,3.94,0,0,0,1.21,2.89,4,4,0,0,0,2.94,1.2,4,4,0,0,0,2.9-1.2A3.91,3.91,0,0,0,267.22,134.68Z"/><path class="cls-3" d="M282.46,117.08v4.67h-4.67v-2.33Zm-4.67,26.33V126.19h4.67v17.22Z"/><path class="cls-3" d="M299.82,138.74a5,5,0,0,0,.65-.06,3.56,3.56,0,0,0,.78-.2l1.63,4.37a7,7,0,0,1-1.66.44,10.39,10.39,0,0,1-1.4.12,11.14,11.14,0,0,1-5.77-1.55,11.65,11.65,0,0,1-4.15-4.16,11,11,0,0,1-1.55-5.76V114.69H293v5.6h7.32V125H293v7a6.83,6.83,0,0,0,6.8,6.8Z"/><path class="cls-3" d="M320.21,120.53a11.09,11.09,0,0,1,5.78,1.54,11.81,11.81,0,0,1,4.15,4.16,11.13,11.13,0,0,1,1.54,5.77v11.41H327V132a6.79,6.79,0,0,0-6.8-6.8h-6.77v18.21h-4.67V115l4.67,2.34v3.24Z"/><path class="cls-3" d="M203,117.31a71.12,71.12,0,0,0-25-25A66.52,66.52,0,0,0,143.33,83c-1.83,0-3.64.07-5.44.21-.33,0-.66.07-1,.1a73,73,0,0,0,1-8.06c.11-1.59.16-3.2.16-4.82,0-2-.08-4-.26-6a66,66,0,0,0-9-28.7,70.7,70.7,0,0,0-25-25A66.48,66.48,0,0,0,69.12,1.34a66.47,66.47,0,0,0-34.74,9.41A71.3,71.3,0,0,0,9.31,35.81,66.47,66.47,0,0,0,0,70.45v55L.24,145a69.86,69.86,0,0,0,.44,7.77l-.44.19a62.47,62.47,0,0,0,5.16,25.5,72,72,0,0,0,29.33,33.34,67,67,0,0,0,34.74,9.31h73.69a66.89,66.89,0,0,0,34.73-9.31,70.94,70.94,0,0,0,25.08-25,69.45,69.45,0,0,0,0-69.47ZM28.14,70.45a39.5,39.5,0,0,1,12-28.93A39.53,39.53,0,0,1,69.12,29.47,39.17,39.17,0,0,1,98,41.52a39.53,39.53,0,0,1,12,28.53,2.68,2.68,0,0,1,0,.4A39.79,39.79,0,0,1,98,99.39a39.38,39.38,0,0,1-28.58,12,3,3,0,0,1-.43,0H28.14Zm46.09,81.68v40.81H69.47a39.53,39.53,0,0,1-28.92-12c-6.07-6-9.62-13.49-11-23.63-.45-3.3-.67-13.25-.67-17.15l-.75.33v-1h40.8c1.85,0,3.67-.07,5.45-.21.33,0,.65-.07,1-.1a68.51,68.51,0,0,0-1,8.06C74.28,148.89,74.23,150.5,74.23,152.13ZM172.1,181a39.62,39.62,0,0,1-28.94,12h-40.8V152.13a40.57,40.57,0,0,1,41-41,40.83,40.83,0,0,1,40.8,40.8A39.38,39.38,0,0,1,172.1,181Z"/></g></g></svg>