<svg xmlns="http://www.w3.org/2000/svg" viewBox="0 0 152.61 32.29"><defs><style>.cls-1{fill:#d3666f;}</style></defs><g id="Capa_2" data-name="Capa 2"><g id="Capa_1-2" data-name="Capa 1"><path class="cls-1" d="M40.45,5.88c0-1.76-.05-4.1-.12-5a11.46,11.46,0,0,0,1.49.07c.68,0,1.14,0,1.85-.07-.18,2.34-.2,3.2-.2,6.29,0,2.5.09,3.11.59,3.73a2.72,2.72,0,0,0,2.2,1A2.91,2.91,0,0,0,49,10.26c.33-.68.42-1.51.42-3.77,0-1.73-.06-3.18-.2-5.65a5.29,5.29,0,0,0,1,.09,3.89,3.89,0,0,0,.88-.09l0,.48c0,.17,0,.7,0,1.6,0,.15,0,.92-.08,2,0,.85-.05,1.58-.05,1.92a11.88,11.88,0,0,1-.21,3.08c-.51,2.27-2.39,3.52-5.2,3.52a5.14,5.14,0,0,1-4.21-1.7,4.25,4.25,0,0,1-.81-2.22c0-.4,0-.51,0-1.51Z"/><path class="cls-1" d="M55.07,13.27c.15-1.49.26-4.47.26-7.5,0-1.4,0-3.13-.11-4.93a10.23,10.23,0,0,0,1.23.09A8.19,8.19,0,0,0,57.57.84a85.77,85.77,0,0,0,6.93,8V8.14c0-2.59-.09-4.76-.29-7.3a7.22,7.22,0,0,0,1.14.09,4.09,4.09,0,0,0,.93-.09c-.16,2.61-.22,4.76-.22,7.76,0,1.88,0,3.37.1,4.69a6.57,6.57,0,0,0-1-.09,5.82,5.82,0,0,0-1,.09C62,10.75,61.34,10,56.93,5.16c0,.89,0,1,0,1.57,0,1.87.11,4.83.26,6.56a9,9,0,0,0-1-.09l-.81.05Z"/><path class="cls-1" d="M81.27,13.29c-.9-.07-1.38-.09-2-.09a14.15,14.15,0,0,0-1.66.09c-.24-1.07-.29-1.27-1-3.79-1.28,0-1.76-.05-2.15-.05s-.66,0-1.89,0c-.68,1.84-.94,2.56-1.31,3.81a8.26,8.26,0,0,0-1-.09,6.32,6.32,0,0,0-1,.09c1-2.12,1.65-3.71,5.22-12.45a9.74,9.74,0,0,0,1.29.09A6.81,6.81,0,0,0,76.89.84C78.91,7.13,79.89,9.91,81.27,13.29ZM73.07,8c.64,0,1,0,1.62,0s.8,0,1.45,0l-1.4-4.21Z"/><path class="cls-1" d="M94.12,13.29c-.79-.07-1.23-.09-1.73-.09a14.55,14.55,0,0,0-1.62.09c.09-1.45.19-4.47.19-6.16,0-1.86,0-1.86-.19-6.29.94.08,1.45.09,2,.09.38,0,.88,0,1.54-.05l1.45,0c2.56,0,3.9,1.2,3.9,3.48,0,2.57-1.75,3.86-5.28,3.86a3.32,3.32,0,0,1-.42,0c0,1.84.09,3.44.15,4.85Zm.33-6.56c1.4,0,2.09-.81,2.09-2.41,0-1.4-.62-2.14-1.82-2.14L94,2.24C94,2.86,94,4.32,94,5.53c0,.77,0,.81,0,1.16C94.17,6.71,94.3,6.73,94.45,6.73Z"/><path class="cls-1" d="M104.67.93a15.7,15.7,0,0,0,1.67-.09c-.13,3.44-.16,4.65-.16,6.38s.07,4.41.16,6.07c-.86-.07-1.28-.09-1.74-.09a14.6,14.6,0,0,0-1.6.09c.11-3.16.14-4.34.14-6.1s0-2.78-.14-6.35A15.94,15.94,0,0,0,104.67.93Z"/><path class="cls-1" d="M113.73,11.71c1.68,0,2.47-.09,3.88-.2,0,.47,0,.68,0,.91s0,.45,0,.87c-.59,0-3-.09-3.73-.09-1,0-2.67.05-3.29.09.07-.92.17-4.49.17-6,0-1.87-.1-5.35-.17-6.4,1.07.06,2,.09,3,.09s3.33-.05,4-.09c0,.61,0,.66,0,.83s0,.2,0,.9c-1.87-.09-2.64-.13-3.29-.13a5.06,5.06,0,0,0-.55,0c0,.52-.06.92-.06,2,0,.24,0,.76,0,1.66,1.9,0,2.71-.07,3.74-.17a7.87,7.87,0,0,0-.06,1,5.48,5.48,0,0,0,.06.75c-1,0-3-.11-3.74-.11,0,.15,0,.55,0,1.22v1.32Z"/><path class="cls-1" d="M131,1.3c-1.25,1.82-3.94,6.16-6.14,9.91l-.24.42c.81,0,.94,0,1.78,0a42.17,42.17,0,0,0,4.45-.28c0,.5-.05.74-.05,1s0,.5.05,1c-1.6-.07-3-.09-4.85-.09-2.37,0-4.71,0-5.67.09v-.66c1.4-2,3.87-6,6.29-10.19-1,0-1.93,0-4,.17-.24,0-.7,0-1.56.09a8.91,8.91,0,0,0,0-1c0-.27,0-.49,0-.9,1.05.06,3,.09,4.61.09,2.82,0,4.71,0,5.3-.09Z"/><path class="cls-1" d="M145.15,13.29c-.9-.07-1.38-.09-2-.09a13.88,13.88,0,0,0-1.65.09c-.24-1.07-.3-1.27-1-3.79l-2.15-.05c-.28,0-.67,0-1.9,0-.68,1.84-.93,2.56-1.3,3.81a8.26,8.26,0,0,0-1-.09,6.53,6.53,0,0,0-1,.09c1-2.12,1.66-3.71,5.22-12.45a9.84,9.84,0,0,0,1.29.09,6.91,6.91,0,0,0,1.18-.09C142.8,7.13,143.77,9.91,145.15,13.29ZM137,8c.65,0,1,0,1.62,0s.81,0,1.45,0l-1.39-4.21Z"/><path class="cls-1" d="M64.38,30.38a6.18,6.18,0,0,0,.15,1,1.56,1.56,0,0,0,.23.54v.15H60.18v-.15a2.74,2.74,0,0,0,.21-.54,7,7,0,0,0,.17-1c0-.45.07-1.05.07-1.8V22.84a4.23,4.23,0,0,0-.4-1.85,3.16,3.16,0,0,0-.92-1.1,2.84,2.84,0,0,0-1.24-.47,5,5,0,0,0-2.63.35,4.74,4.74,0,0,0-1,.6A4,4,0,0,1,55,22.48c0,.4,0,.93,0,1.61s0,1.34,0,2v2.47q0,1.13.06,1.8a6.18,6.18,0,0,0,.15,1,1.74,1.74,0,0,0,.24.54v.15H50.79v-.15a2.31,2.31,0,0,0,.2-.54,7,7,0,0,0,.17-1,17.3,17.3,0,0,0,.07-1.8V22.81a4.06,4.06,0,0,0-.74-2.5,2.8,2.8,0,0,0-1.6-1,3.75,3.75,0,0,0-1.87.12,3.85,3.85,0,0,0-1.53.83v8.3a17.3,17.3,0,0,0,.07,1.8,5.06,5.06,0,0,0,.16,1,1.51,1.51,0,0,0,.25.54v.15H41.39v-.15a2.74,2.74,0,0,0,.21-.54,7.27,7.27,0,0,0,.16-1,16.85,16.85,0,0,0,.08-1.8v-10l3.68,1.16v0A8.16,8.16,0,0,1,48,18.51a7,7,0,0,1,2.48-.28,5.67,5.67,0,0,1,2.16.58,4.27,4.27,0,0,1,1.56,1.32v0a8,8,0,0,1,3.39-1.69,7,7,0,0,1,3.28,0,4.82,4.82,0,0,1,2.47,1.44,3.76,3.76,0,0,1,1,2.63c0,.4,0,.93,0,1.61s0,1.34,0,2v2.47Q64.32,29.71,64.38,30.38Z"/><path class="cls-1" d="M78.56,28.55q0,1.13.06,1.8t.12,1a1.43,1.43,0,0,0,.21.54v.18q-.66,0-1.35-.06a3.39,3.39,0,0,1-1.27-.36,2.45,2.45,0,0,1-1-.94,3.82,3.82,0,0,1-.45-1.8,5.61,5.61,0,0,1-.69,1.73,3.38,3.38,0,0,1-1,1,3.69,3.69,0,0,1-1.3.49,9.05,9.05,0,0,1-1.63.13,4.54,4.54,0,0,1-1.5-.25,3.62,3.62,0,0,1-2.17-2,3.91,3.91,0,0,1-.34-1.68,3.54,3.54,0,0,1,.57-2.05,5.19,5.19,0,0,1,1.42-1.42,9.48,9.48,0,0,1,1.91-1l2-.75a13.2,13.2,0,0,0,1.67-.74,2.16,2.16,0,0,0,1-1,4,4,0,0,0-.72-1.95,1.88,1.88,0,0,0-1.54-.67,2.63,2.63,0,0,0-1.31.28,2.45,2.45,0,0,0-.76.7,3.31,3.31,0,0,0-.43.91,5.75,5.75,0,0,1-.36.91,2.33,2.33,0,0,1-.52.7,1.31,1.31,0,0,1-.91.28,1.15,1.15,0,0,1-1-.48,1.55,1.55,0,0,1-.38-1,2.48,2.48,0,0,1,.26-1.07,2.54,2.54,0,0,1,.87-1,5.29,5.29,0,0,1,1.71-.68,12.6,12.6,0,0,1,2.79-.25,5.91,5.91,0,0,1,2.44.49,5.07,5.07,0,0,1,1.91,1.49,6.94,6.94,0,0,1,1.25,2.54,13.49,13.49,0,0,1,.43,3.63Zm-6.51,3a1.81,1.81,0,0,0,1-.34,3.28,3.28,0,0,0,.91-1,5.86,5.86,0,0,0,.65-1.49,6.62,6.62,0,0,0,.25-1.9l-.06-4.79a3.4,3.4,0,0,1-1.36,1,15.08,15.08,0,0,0-1.77.94,5.32,5.32,0,0,0-1.53,1.39,4,4,0,0,0-.66,2.47Q69.52,31.55,72.05,31.55Z"/><path class="cls-1" d="M93.91,26.7a9,9,0,0,1-2,3.59A6.56,6.56,0,0,1,89.1,32a6.26,6.26,0,0,1-3,.13,6.77,6.77,0,0,1-2.8-1.25,7.25,7.25,0,0,1-2.05-2.42,7,7,0,0,1-.8-3.39,7.14,7.14,0,0,1,.58-3,6.55,6.55,0,0,1,3.67-3.48,6.94,6.94,0,0,1,2.41-.44,8.62,8.62,0,0,1,1.91.22,5.9,5.9,0,0,1,1.83.73,4.32,4.32,0,0,1,1.37,1.32,3.59,3.59,0,0,1,.54,2,3.14,3.14,0,0,1-.45,1.77,3.59,3.59,0,0,1-1.16,1.1,6.13,6.13,0,0,1-1.59.67l-1.77.49a15.76,15.76,0,0,0-1.68.58,3.33,3.33,0,0,0-1.29.92,5.2,5.2,0,0,0,2,1.83,4.44,4.44,0,0,0,2.51.48,4.87,4.87,0,0,0,2.47-1,5.93,5.93,0,0,0,1.83-2.73ZM87,18.5a1.93,1.93,0,0,0-1.33.52,4.33,4.33,0,0,0-1,1.36,8.5,8.5,0,0,0-.62,1.94,11,11,0,0,0-.22,2.24A6.71,6.71,0,0,0,84,26.3a6,6,0,0,0,.6,1.47A5.19,5.19,0,0,1,86,26.55a16,16,0,0,0,1.58-1.16A7.07,7.07,0,0,0,88.84,24a3.57,3.57,0,0,0,.55-2,4.9,4.9,0,0,0-.14-1,4.32,4.32,0,0,0-.43-1.13,3.24,3.24,0,0,0-.74-.9A1.66,1.66,0,0,0,87,18.5Z"/><path class="cls-1" d="M102.5,31.91a2.16,2.16,0,0,0,1.58-.64,2.34,2.34,0,0,0,.62-1.68,2.11,2.11,0,0,0-.62-1.53,6.6,6.6,0,0,0-1.56-1.16c-.63-.35-1.3-.68-2-1a16.73,16.73,0,0,1-2-1.06,6,6,0,0,1-1.56-1.35,2.86,2.86,0,0,1-.63-1.87,2.58,2.58,0,0,1,.44-1.5,3.33,3.33,0,0,1,1.16-1.07,5.49,5.49,0,0,1,1.68-.64,9.28,9.28,0,0,1,2-.21,12.67,12.67,0,0,1,3.08.38,5.4,5.4,0,0,1,2.27,1.08,2,2,0,0,1,.54.65,1.7,1.7,0,0,1,.2.83,1.83,1.83,0,0,1-.53,1.33,1.95,1.95,0,0,1-2.47.2,2.52,2.52,0,0,1-.67-.84,5.45,5.45,0,0,1-.41-1.09,5.77,5.77,0,0,0-.42-1.08,2.58,2.58,0,0,0-.68-.85,1.89,1.89,0,0,0-1.21-.34A1.62,1.62,0,0,0,99.9,19a2,2,0,0,0-.43,1.25,2,2,0,0,0,.65,1.52,7.34,7.34,0,0,0,1.65,1.13c.67.33,1.38.66,2.14,1a17,17,0,0,1,2.14,1,6.48,6.48,0,0,1,1.65,1.29,2.6,2.6,0,0,1,.66,1.8,3.46,3.46,0,0,1-.39,1.62A3.89,3.89,0,0,1,106.78,31a6.33,6.33,0,0,1-2,.93,10.07,10.07,0,0,1-2.8.34,9.59,9.59,0,0,1-3.8-.59,5.32,5.32,0,0,1-2-1.34,3.2,3.2,0,0,1-.84-1.93,1.95,1.95,0,0,1,2-2,1.48,1.48,0,0,1,1.14.4,2.85,2.85,0,0,1,.6,1,13,13,0,0,1,.38,1.32,5.44,5.44,0,0,0,.48,1.32,2.73,2.73,0,0,0,.89,1A3,3,0,0,0,102.5,31.91Z"/><path class="cls-1" d="M114,14.81V18.2h2.53v.5H114v9.88a3.29,3.29,0,0,0,.37,1.83,1.41,1.41,0,0,0,.88.61,2.22,2.22,0,0,0,1-.09,6.85,6.85,0,0,0,.82-.33l.21.21c-.14.1-.41.25-.8.47a9.23,9.23,0,0,1-1.37.6,8,8,0,0,1-1.62.37,2.86,2.86,0,0,1-1.55-.21,2.62,2.62,0,0,1-1.16-1.11,4.91,4.91,0,0,1-.46-2.35v-6.9a7.94,7.94,0,0,0-.12-1.56,3.56,3.56,0,0,0-.28-.9,1,1,0,0,0-.34-.41.65.65,0,0,0-.3-.11h-1.22v-.5h.72a4.12,4.12,0,0,0,1.59-.36,7.57,7.57,0,0,0,1.57-.89,6.6,6.6,0,0,0,1.21-1.12,1.71,1.71,0,0,0,.47-1Z"/><path class="cls-1" d="M124.68,18.84a6.41,6.41,0,0,1,2.71-.67A4.73,4.73,0,0,1,130,19a3.61,3.61,0,0,1,.91.92,2.11,2.11,0,0,1-.27,2.68,2,2,0,0,1-1.51.62A2.13,2.13,0,0,1,127,21.08a1.6,1.6,0,0,0-.66-1.48,1.7,1.7,0,0,0-1.48-.17,3.07,3.07,0,0,0-1.47,1.16,4,4,0,0,0-.67,2.43v5.53q0,1.13.06,1.8a6.18,6.18,0,0,0,.15,1,1.74,1.74,0,0,0,.24.54v.18h-4.55v-.18a2.74,2.74,0,0,0,.21-.54,7.27,7.27,0,0,0,.16-1,17.3,17.3,0,0,0,.07-1.8V19.74l3.66-1.16v2.21A4.17,4.17,0,0,1,124.68,18.84Z"/><path class="cls-1" d="M145.08,28.55q0,1.13.06,1.8t.12,1a1.43,1.43,0,0,0,.21.54v.18q-.66,0-1.35-.06a3.39,3.39,0,0,1-1.27-.36,2.42,2.42,0,0,1-1-.94,3.82,3.82,0,0,1-.45-1.8,5.6,5.6,0,0,1-.7,1.73,3.47,3.47,0,0,1-1,1,3.82,3.82,0,0,1-1.31.49,9,9,0,0,1-1.62.13,4.46,4.46,0,0,1-1.5-.25,3.77,3.77,0,0,1-1.28-.74,3.67,3.67,0,0,1-.89-1.22,3.91,3.91,0,0,1-.35-1.68,3.54,3.54,0,0,1,.57-2.05,5.09,5.09,0,0,1,1.43-1.42,9.14,9.14,0,0,1,1.9-1l2-.75a13,13,0,0,0,1.66-.74,2.11,2.11,0,0,0,1-1,4,4,0,0,0-.72-1.95,1.87,1.87,0,0,0-1.54-.67,2.66,2.66,0,0,0-1.31.28,2.45,2.45,0,0,0-.76.7,3.31,3.31,0,0,0-.43.91,5.75,5.75,0,0,1-.36.91,2.33,2.33,0,0,1-.52.7,1.29,1.29,0,0,1-.9.28,1.17,1.17,0,0,1-1-.48,1.54,1.54,0,0,1-.37-1,2.46,2.46,0,0,1,.25-1.07,2.5,2.5,0,0,1,.88-1,5.11,5.11,0,0,1,1.71-.68,12.5,12.5,0,0,1,2.78-.25,5.91,5.91,0,0,1,2.44.49,5.1,5.1,0,0,1,1.92,1.49,6.93,6.93,0,0,1,1.24,2.54,13.49,13.49,0,0,1,.43,3.63Zm-6.51,3a1.79,1.79,0,0,0,1-.34,3.28,3.28,0,0,0,.91-1,5.24,5.24,0,0,0,.65-1.49,6.61,6.61,0,0,0,.26-1.9l-.06-4.79a3.51,3.51,0,0,1-1.37,1,15.08,15.08,0,0,0-1.77.94,5.45,5.45,0,0,0-1.53,1.39,4,4,0,0,0-.66,2.47C136,30.33,136.89,31.55,138.57,31.55Z"/><circle class="cls-1" cx="150.03" cy="23.99" r="2.58"/><path class="cls-1" d="M18.37,19.63c-1.17-2.58-3.88-4.18-6.28-5.61h0l-1.18-.71h0a3,3,0,0,1-1.11-1.1,2.75,2.75,0,0,0-1.22-1.26,2.07,2.07,0,0,0-1-.24,1.8,1.8,0,0,0-.69.13A2,2,0,0,0,5.78,12a2.88,2.88,0,0,0,0,1.79A6.93,6.93,0,0,0,8.4,17.07,7.15,7.15,0,0,1,10,18.66l0,0v0a6.22,6.22,0,0,1-1.19-.55c-.1-.05-.19-.11-.29-.15A10.66,10.66,0,0,1,2.77,9.86h0l0-.1h0a6.55,6.55,0,0,1-.08-1.53,2.05,2.05,0,0,0-.81-1.69,9.28,9.28,0,0,1,2.9-4.67A7.55,7.55,0,0,1,14.82,2a9.32,9.32,0,0,1,2.86,5,.33.33,0,0,0,.33.27A.34.34,0,0,0,18.34,7a9.29,9.29,0,0,1,2.94-5,8,8,0,0,1,10.38-.14A9.17,9.17,0,0,1,34.6,6.34a2,2,0,0,0-1,1.89,6.83,6.83,0,0,1,0,1.54h0l0,.11h0a10.65,10.65,0,0,1-5.59,8.28l-.28.17a7.53,7.53,0,0,1-1.18.58v0l0,0a7.11,7.11,0,0,1,1.58-1.63,6.88,6.88,0,0,0,2.53-3.31,2.8,2.8,0,0,0-.05-1.79A2,2,0,0,0,29.43,11a1.82,1.82,0,0,0-.65-.12,2.1,2.1,0,0,0-1,.27,2.79,2.79,0,0,0-1.18,1.29,3,3,0,0,1-1.08,1.13h0l-1.17.76h0C22.07,15.68,19.56,17.26,18.37,19.63Z"/><path class="cls-1" d="M34.81,10.13a8.54,8.54,0,0,0,.06-1.83.9.9,0,0,1,.51-.86c.46-.26,1-.12,1.06.57.43,8.32-2.88,12.44-9.13,17.57-1.9,1.55-3.86,3-5.72,4.62-.25.22-.36.21-.55-.09a12.58,12.58,0,0,1-2.13-5.64,8.8,8.8,0,0,1,.35-3.57c1-2.86,4.54-4.65,7-6.27a4.07,4.07,0,0,0,1.5-1.58,1.71,1.71,0,0,1,.69-.79.72.72,0,0,1,1.11.4,1.61,1.61,0,0,1,0,1c-.6,2.11-2.92,2.87-4,4.67-.62,1-.14,2.2,1.16,1.85a7.87,7.87,0,0,0,1.87-.9A11.88,11.88,0,0,0,34.81,10.13Z"/><path class="cls-1" d="M1.69,10.13a8.61,8.61,0,0,1-.11-1.82.88.88,0,0,0-.53-.85c-.46-.25-1-.1-1,.59C-.22,16.39,3.2,20.42,9.58,25.39c1.93,1.5,3.93,2.92,5.82,4.48.26.21.38.19.55-.1a12.68,12.68,0,0,0,2-5.7,9,9,0,0,0-.45-3.56c-1.09-2.83-4.65-4.54-7.14-6.09a4.14,4.14,0,0,1-1.54-1.54,1.68,1.68,0,0,0-.71-.78.73.73,0,0,0-1.1.44,1.61,1.61,0,0,0,0,1c.65,2.08,3,2.79,4.1,4.56.64.95.19,2.2-1.12,1.88a8.55,8.55,0,0,1-1.9-.85A11.9,11.9,0,0,1,1.69,10.13Z"/><circle class="cls-1" cx="18.41" cy="29.72" r="1.62"/></g></g></svg>